<svg xmlns="http://www.w3.org/2000/svg" xmlns:xlink="http://www.w3.org/1999/xlink" width="500" zoomAndPan="magnify" viewBox="0 0 375 374.999991" height="500" preserveAspectRatio="xMidYMid meet" version="1.0"><defs><g/><clipPath id="76943a2781"><path d="M 38 120.007812 L 129 120.007812 L 129 255 L 38 255 Z M 38 120.007812 " clip-rule="nonzero"/></clipPath></defs><path fill="#ffffff" d="M 135.679688 128.414062 L 137.179688 128.414062 L 137.179688 129.914062 L 135.679688 129.914062 M 138.683594 128.414062 L 140.183594 128.414062 L 140.183594 129.914062 L 138.683594 129.914062 M 141.683594 128.414062 L 143.183594 128.414062 L 143.183594 129.914062 L 141.683594 129.914062 M 144.683594 128.414062 L 146.183594 128.414062 L 146.183594 129.914062 L 144.683594 129.914062 M 147.683594 128.414062 L 149.183594 128.414062 L 149.183594 129.914062 L 147.683594 129.914062 M 150.683594 128.414062 L 152.183594 128.414062 L 152.183594 129.914062 L 150.683594 129.914062 M 153.683594 128.414062 L 155.1875 128.414062 L 155.1875 129.914062 L 153.683594 129.914062 M 156.6875 128.414062 L 158.1875 128.414062 L 158.1875 129.914062 L 156.6875 129.914062 M 159.6875 128.414062 L 161.1875 128.414062 L 161.1875 129.914062 L 159.6875 129.914062 M 162.6875 128.414062 L 164.1875 128.414062 L 164.1875 129.914062 L 162.6875 129.914062 M 165.6875 128.414062 L 167.1875 128.414062 L 167.1875 129.914062 L 165.6875 129.914062 M 168.6875 128.414062 L 170.191406 128.414062 L 170.191406 129.914062 L 168.6875 129.914062 M 171.691406 128.414062 L 173.191406 128.414062 L 173.191406 129.914062 L 171.691406 129.914062 M 174.691406 128.414062 L 176.191406 128.414062 L 176.191406 129.914062 L 174.691406 129.914062 M 177.691406 128.414062 L 179.191406 128.414062 L 179.191406 129.914062 L 177.691406 129.914062 M 180.691406 128.414062 L 182.191406 128.414062 L 182.191406 129.914062 L 180.691406 129.914062 M 183.691406 128.414062 L 185.191406 128.414062 L 185.191406 129.914062 L 183.691406 129.914062 M 186.695312 128.414062 L 188.195312 128.414062 L 188.195312 129.914062 L 186.695312 129.914062 M 189.695312 128.414062 L 191.195312 128.414062 L 191.195312 129.914062 L 189.695312 129.914062 M 192.695312 128.414062 L 194.195312 128.414062 L 194.195312 129.914062 L 192.695312 129.914062 M 195.695312 128.414062 L 197.195312 128.414062 L 197.195312 129.914062 L 195.695312 129.914062 M 198.695312 128.414062 L 200.195312 128.414062 L 200.195312 129.914062 L 198.695312 129.914062 M 201.699219 128.414062 L 203.199219 128.414062 L 203.199219 129.914062 L 201.699219 129.914062 M 204.699219 128.414062 L 206.199219 128.414062 L 206.199219 129.914062 L 204.699219 129.914062 M 207.699219 128.414062 L 209.199219 128.414062 L 209.199219 129.914062 L 207.699219 129.914062 M 210.699219 128.414062 L 212.199219 128.414062 L 212.199219 129.914062 L 210.699219 129.914062 M 213.699219 128.414062 L 215.199219 128.414062 L 215.199219 129.914062 L 213.699219 129.914062 M 216.699219 128.414062 L 218.203125 128.414062 L 218.203125 129.914062 L 216.699219 129.914062 M 219.703125 128.414062 L 221.203125 128.414062 L 221.203125 129.914062 L 219.703125 129.914062 M 222.703125 128.414062 L 224.203125 128.414062 L 224.203125 129.914062 L 222.703125 129.914062 M 225.703125 128.414062 L 227.203125 128.414062 L 227.203125 129.914062 L 225.703125 129.914062 M 228.703125 128.414062 L 230.203125 128.414062 L 230.203125 129.914062 L 228.703125 129.914062 M 231.703125 128.414062 L 233.207031 128.414062 L 233.207031 129.914062 L 231.703125 129.914062 M 234.707031 128.414062 L 236.207031 128.414062 L 236.207031 129.914062 L 234.707031 129.914062 M 237.707031 128.414062 L 239.207031 128.414062 L 239.207031 129.914062 L 237.707031 129.914062 M 240.707031 128.414062 L 242.207031 128.414062 L 242.207031 129.914062 L 240.707031 129.914062 M 243.707031 128.414062 L 245.207031 128.414062 L 245.207031 129.914062 L 243.707031 129.914062 M 246.707031 128.414062 L 248.207031 128.414062 L 248.207031 129.914062 L 246.707031 129.914062 M 249.710938 128.414062 L 251.210938 128.414062 L 251.210938 129.914062 L 249.710938 129.914062 M 252.710938 128.414062 L 254.210938 128.414062 L 254.210938 129.914062 L 252.710938 129.914062 M 255.710938 128.414062 L 257.210938 128.414062 L 257.210938 129.914062 L 255.710938 129.914062 M 258.710938 128.414062 L 260.210938 128.414062 L 260.210938 129.914062 L 258.710938 129.914062 M 261.710938 128.414062 L 263.210938 128.414062 L 263.210938 129.914062 L 261.710938 129.914062 M 264.714844 128.414062 L 266.214844 128.414062 L 266.214844 129.914062 L 264.714844 129.914062 M 267.714844 128.414062 L 269.214844 128.414062 L 269.214844 129.914062 L 267.714844 129.914062 M 270.714844 128.414062 L 272.214844 128.414062 L 272.214844 129.914062 L 270.714844 129.914062 M 273.714844 128.414062 L 275.214844 128.414062 L 275.214844 129.914062 L 273.714844 129.914062 M 276.714844 128.414062 L 277.4375 128.414062 L 277.4375 129.914062 L 276.714844 129.914062 " fill-opacity="1" fill-rule="nonzero"/><path fill="#1f2750" d="M 135.679688 245.085938 L 137.183594 245.085938 L 137.183594 246.585938 L 135.679688 246.585938 M 138.683594 245.085938 L 140.183594 245.085938 L 140.183594 246.585938 L 138.683594 246.585938 M 141.683594 245.085938 L 143.183594 245.085938 L 143.183594 246.585938 L 141.683594 246.585938 M 144.683594 245.085938 L 146.1875 245.085938 L 146.1875 246.585938 L 144.683594 246.585938 M 147.6875 245.085938 L 149.1875 245.085938 L 149.1875 246.585938 L 147.6875 246.585938 M 150.6875 245.085938 L 152.1875 245.085938 L 152.1875 246.585938 L 150.6875 246.585938 M 153.691406 245.085938 L 155.191406 245.085938 L 155.191406 246.585938 L 153.691406 246.585938 M 156.691406 245.085938 L 158.191406 245.085938 L 158.191406 246.585938 L 156.691406 246.585938 M 159.691406 245.085938 L 161.191406 245.085938 L 161.191406 246.585938 L 159.691406 246.585938 M 162.695312 245.085938 L 164.195312 245.085938 L 164.195312 246.585938 L 162.695312 246.585938 M 165.695312 245.085938 L 167.195312 245.085938 L 167.195312 246.585938 L 165.695312 246.585938 M 168.695312 245.085938 L 170.199219 245.085938 L 170.199219 246.585938 L 168.695312 246.585938 M 171.699219 245.085938 L 173.199219 245.085938 L 173.199219 246.585938 L 171.699219 246.585938 M 174.699219 245.085938 L 176.199219 245.085938 L 176.199219 246.585938 L 174.699219 246.585938 M 177.699219 245.085938 L 179.203125 245.085938 L 179.203125 246.585938 L 177.699219 246.585938 M 180.703125 245.085938 L 182.203125 245.085938 L 182.203125 246.585938 L 180.703125 246.585938 M 183.703125 245.085938 L 185.203125 245.085938 L 185.203125 246.585938 L 183.703125 246.585938 M 186.707031 245.085938 L 188.207031 245.085938 L 188.207031 246.585938 L 186.707031 246.585938 M 189.707031 245.085938 L 191.207031 245.085938 L 191.207031 246.585938 L 189.707031 246.585938 M 192.707031 245.085938 L 194.207031 245.085938 L 194.207031 246.585938 L 192.707031 246.585938 M 195.710938 245.085938 L 197.210938 245.085938 L 197.210938 246.585938 L 195.710938 246.585938 M 198.710938 245.085938 L 200.210938 245.085938 L 200.210938 246.585938 L 198.710938 246.585938 M 201.710938 245.085938 L 203.214844 245.085938 L 203.214844 246.585938 L 201.710938 246.585938 M 204.714844 245.085938 L 206.214844 245.085938 L 206.214844 246.585938 L 204.714844 246.585938 M 207.714844 245.085938 L 209.214844 245.085938 L 209.214844 246.585938 L 207.714844 246.585938 M 210.71875 245.085938 L 212.21875 245.085938 L 212.21875 246.585938 L 210.71875 246.585938 M 213.71875 245.085938 L 215.21875 245.085938 L 215.21875 246.585938 L 213.71875 246.585938 M 216.71875 245.085938 L 218.21875 245.085938 L 218.21875 246.585938 L 216.71875 246.585938 M 219.722656 245.085938 L 221.222656 245.085938 L 221.222656 246.585938 L 219.722656 246.585938 M 222.722656 245.085938 L 224.222656 245.085938 L 224.222656 246.585938 L 222.722656 246.585938 M 225.722656 245.085938 L 227.226562 245.085938 L 227.226562 246.585938 L 225.722656 246.585938 M 228.726562 245.085938 L 230.226562 245.085938 L 230.226562 246.585938 L 228.726562 246.585938 M 231.726562 245.085938 L 233.226562 245.085938 L 233.226562 246.585938 L 231.726562 246.585938 M 234.726562 245.085938 L 236.230469 245.085938 L 236.230469 246.585938 L 234.726562 246.585938 M 237.730469 245.085938 L 239.230469 245.085938 L 239.230469 246.585938 L 237.730469 246.585938 M 240.730469 245.085938 L 242.230469 245.085938 L 242.230469 246.585938 L 240.730469 246.585938 M 243.734375 245.085938 L 245.234375 245.085938 L 245.234375 246.585938 L 243.734375 246.585938 M 246.734375 245.085938 L 248.234375 245.085938 L 248.234375 246.585938 L 246.734375 246.585938 M 249.734375 245.085938 L 251.234375 245.085938 L 251.234375 246.585938 L 249.734375 246.585938 M 252.738281 245.085938 L 254.238281 245.085938 L 254.238281 246.585938 L 252.738281 246.585938 M 255.738281 245.085938 L 257.238281 245.085938 L 257.238281 246.585938 L 255.738281 246.585938 M 258.738281 245.085938 L 260.242188 245.085938 L 260.242188 246.585938 L 258.738281 246.585938 M 261.742188 245.085938 L 263.242188 245.085938 L 263.242188 246.585938 L 261.742188 246.585938 M 264.742188 245.085938 L 266.242188 245.085938 L 266.242188 246.585938 L 264.742188 246.585938 M 267.746094 245.085938 L 269.246094 245.085938 L 269.246094 246.585938 L 267.746094 246.585938 M 270.746094 245.085938 L 272.246094 245.085938 L 272.246094 246.585938 L 270.746094 246.585938 M 273.746094 245.085938 L 275.246094 245.085938 L 275.246094 246.585938 L 273.746094 246.585938 M 276.75 245.085938 L 278.25 245.085938 L 278.25 246.585938 L 276.75 246.585938 M 279.75 245.085938 L 281.25 245.085938 L 281.25 246.585938 L 279.75 246.585938 M 282.75 245.085938 L 284.253906 245.085938 L 284.253906 246.585938 L 282.75 246.585938 M 285.753906 245.085938 L 287.253906 245.085938 L 287.253906 246.585938 L 285.753906 246.585938 M 288.753906 245.085938 L 290.253906 245.085938 L 290.253906 246.585938 L 288.753906 246.585938 M 291.753906 245.085938 L 293.257812 245.085938 L 293.257812 246.585938 L 291.753906 246.585938 M 294.757812 245.085938 L 296.257812 245.085938 L 296.257812 246.585938 L 294.757812 246.585938 M 297.757812 245.085938 L 299.257812 245.085938 L 299.257812 246.585938 L 297.757812 246.585938 M 300.761719 245.085938 L 302.261719 245.085938 L 302.261719 246.585938 L 300.761719 246.585938 M 303.761719 245.085938 L 305.261719 245.085938 L 305.261719 246.585938 L 303.761719 246.585938 M 306.761719 245.085938 L 308.261719 245.085938 L 308.261719 246.585938 L 306.761719 246.585938 M 309.765625 245.085938 L 311.265625 245.085938 L 311.265625 246.585938 L 309.765625 246.585938 M 312.765625 245.085938 L 314.265625 245.085938 L 314.265625 246.585938 L 312.765625 246.585938 M 315.765625 245.085938 L 317.269531 245.085938 L 317.269531 246.585938 L 315.765625 246.585938 M 318.769531 245.085938 L 320.269531 245.085938 L 320.269531 246.585938 L 318.769531 246.585938 M 321.769531 245.085938 L 323.269531 245.085938 L 323.269531 246.585938 L 321.769531 246.585938 M 324.769531 245.085938 L 326.273438 245.085938 L 326.273438 246.585938 L 324.769531 246.585938 M 327.773438 245.085938 L 329.273438 245.085938 L 329.273438 246.585938 L 327.773438 246.585938 M 330.773438 245.085938 L 331.4375 245.085938 L 331.4375 246.585938 L 330.773438 246.585938 " fill-opacity="1" fill-rule="nonzero"/><g clip-path="url(#76943a2781)"><path fill="#ffffff" d="M 110.027344 121.269531 C 110.027344 122.324219 109.539062 125.332031 110.355469 125.785156 C 110.851562 126.066406 112.101562 125.5 112.570312 125.324219 C 114.003906 124.785156 113.160156 125.644531 113.757812 125.984375 C 113.972656 126.105469 113.6875 126.527344 114.328125 126.636719 C 114.769531 126.707031 115.355469 126.4375 115.757812 126.558594 C 117.726562 127.144531 116.5 128.890625 119.003906 128.75 C 120.539062 128.664062 120.335938 130.367188 121.421875 131.09375 C 122.234375 131.640625 123.476562 131.410156 123.859375 132.460938 C 123.949219 132.714844 122.421875 132.949219 123.539062 133.550781 C 124.167969 133.890625 124.800781 133.816406 125.308594 134.332031 C 126.0625 135.101562 124.570312 135.292969 126.207031 135.589844 C 126.960938 135.722656 127.894531 135.285156 128.699219 135.367188 C 128.972656 135.398438 128.308594 145.117188 128.25 146.382812 C 127.546875 161.480469 127.429688 176.625 127.25 191.734375 C 127.160156 199.359375 127.105469 206.984375 127.058594 214.613281 C 127.035156 218.757812 127.019531 222.902344 127.019531 227.050781 C 127.019531 228.683594 127.023438 230.316406 127.03125 231.945312 C 127.035156 233.308594 127.503906 235.921875 126.953125 237.199219 C 126.152344 239.066406 123.1875 238.972656 121.445312 239.292969 C 117.996094 239.925781 114.558594 240.644531 111.125 241.363281 C 104.21875 242.804688 97.339844 244.386719 90.398438 245.660156 C 83.160156 246.988281 75.992188 248.730469 68.761719 250.085938 C 65.203125 250.75 61.59375 251.097656 58.011719 251.570312 C 56.367188 251.785156 54.734375 252.082031 53.105469 252.375 C 52.714844 252.445312 51.980469 253.605469 51.359375 253.851562 C 48.472656 255.003906 45.890625 253 43.785156 251.417969 C 42.566406 250.5 41.296875 249.5 40.570312 248.125 C 39.863281 246.792969 40.367188 244.472656 40.359375 242.933594 C 40.316406 235.1875 40.269531 227.4375 40.230469 219.6875 C 40.148438 203.664062 40.074219 187.640625 39.992188 171.617188 C 39.953125 164.585938 40.578125 157.144531 39.8125 150.148438 C 39.507812 147.382812 37.492188 143.011719 40.984375 141.585938 C 41.808594 141.246094 42.660156 140.816406 43.535156 140.632812 C 44.714844 140.382812 45.703125 141.074219 46.96875 140.941406 C 53.824219 140.230469 60.929688 136.761719 67.421875 134.578125 C 74.609375 132.15625 81.796875 129.722656 89.011719 127.367188 C 92.730469 126.15625 96.445312 124.941406 100.167969 123.746094 C 102.003906 123.15625 108.78125 120.023438 110.027344 121.269531 " fill-opacity="1" fill-rule="nonzero"/></g><path fill="#1f2750" d="M 108.949219 123.035156 C 95.917969 127.929688 82.507812 132.167969 69.605469 137.285156 C 63.84375 139.570312 57.835938 141.273438 52.019531 143.453125 C 50.710938 143.941406 49.273438 144.667969 48.046875 144.597656 C 47.003906 144.539062 46.242188 143.96875 45.082031 144.199219 C 44.09375 144.398438 43.84375 144.816406 44.554688 145.632812 C 45.132812 146.296875 45.34375 145.453125 45.542969 145.566406 L 45.542969 145.214844 C 46.328125 146.847656 47.96875 147.660156 49.648438 148.078125 C 47.277344 147.296875 43.566406 146.050781 42.890625 143.261719 C 42.328125 140.960938 44.886719 142.402344 45.40625 142.304688 C 51.855469 141.085938 57.617188 138.566406 63.796875 136.511719 C 70.917969 134.144531 78.023438 131.734375 85.164062 129.417969 C 91.824219 127.257812 98.699219 125.769531 105.285156 123.449219 C 106.1875 123.132812 109.246094 121.257812 108.949219 123.035156 " fill-opacity="1" fill-rule="nonzero"/><path fill="#1f2750" d="M 109.125 126.09375 C 99.882812 129.90625 90.410156 132.984375 80.917969 136.089844 C 76.390625 137.570312 71.734375 138.609375 67.210938 140.148438 C 63.304688 141.480469 57.542969 144.621094 53.378906 144.136719 C 63.367188 140.605469 73.382812 137.15625 83.371094 133.628906 C 91.886719 130.621094 100.230469 126.636719 108.949219 124.308594 C 108.839844 124.957031 108.691406 125.605469 109.125 126.09375 " fill-opacity="1" fill-rule="nonzero"/><path fill="#1f2750" d="M 112.855469 126.449219 C 112.980469 126.820312 112.789062 127.019531 113.054688 127.351562 C 94.886719 133.113281 76.914062 139.644531 58.363281 144.136719 C 68.226562 140.820312 78.222656 137.9375 88.164062 134.871094 C 93.117188 133.34375 97.992188 131.617188 102.851562 129.820312 C 106.078125 128.625 109.46875 126.902344 112.855469 126.449219 " fill-opacity="1" fill-rule="nonzero"/><path fill="#1f2750" d="M 116.261719 128.230469 C 117.1875 130.203125 112.597656 130.5 111.210938 130.832031 C 108.8125 131.402344 106.398438 131.921875 103.992188 132.445312 C 99.363281 133.449219 94.777344 134.558594 90.242188 135.917969 C 94.5 134.558594 98.730469 133.132812 102.972656 131.738281 C 104.828125 131.125 115.402344 126.824219 116.261719 128.230469 " fill-opacity="1" fill-rule="nonzero"/><path fill="#1f2750" d="M 120.523438 131.976562 C 120.824219 132.035156 121.125 132.09375 121.421875 132.152344 C 99.96875 137.414062 78.039062 140.566406 56.589844 145.917969 C 68.671875 142.09375 81.144531 139.660156 93.296875 136.21875 C 98.71875 134.683594 104.191406 133.632812 109.65625 132.261719 C 112.402344 131.574219 115.132812 130.828125 117.882812 130.160156 C 120.25 129.585938 118.828125 131.28125 120.523438 131.976562 " fill-opacity="1" fill-rule="nonzero"/><path fill="#1f2750" d="M 122.296875 133.230469 C 122.320312 135.109375 101.570312 137.375 98.804688 137.703125 C 102.800781 137.109375 106.789062 136.441406 110.746094 135.617188 C 112.8125 135.1875 114.878906 134.765625 116.9375 134.292969 C 118.355469 133.96875 121.023438 132.859375 122.296875 133.230469 " fill-opacity="1" fill-rule="nonzero"/><path fill="#1f2750" d="M 123.902344 135.722656 C 113.28125 137.265625 102.894531 139.875 92.355469 141.839844 C 82.800781 143.617188 73.019531 144.8125 63.347656 145.742188 C 73.433594 143.601562 83.527344 141.511719 93.683594 139.726562 C 103.796875 137.953125 114.015625 136.761719 124.101562 134.839844 C 124.085938 134.925781 123.90625 135.714844 123.902344 135.722656 " fill-opacity="1" fill-rule="nonzero"/><path fill="#1f2750" d="M 127.460938 136.449219 C 128.023438 167.464844 126.132812 198.550781 126.0625 229.578125 C 126.058594 230.886719 126.074219 232.1875 126.113281 233.492188 C 126.167969 235.335938 127.058594 237.265625 125.078125 237.636719 C 121.199219 238.367188 117.320312 239.113281 113.441406 239.867188 C 106.8125 241.164062 100.199219 242.574219 93.582031 243.941406 C 80.105469 246.722656 66.53125 248.808594 53.03125 251.363281 C 52.703125 220.429688 53.152344 189.464844 53.339844 158.53125 C 53.339844 157.886719 53.117188 148.285156 53.472656 148.246094 C 57.289062 147.820312 61.101562 147.382812 64.914062 146.929688 C 71.5 146.144531 78.078125 145.167969 84.625 144.089844 C 98.8125 141.75 113.167969 137.535156 127.460938 136.449219 " fill-opacity="1" fill-rule="nonzero"/><path fill="#1f2750" d="M 45.71875 147.878906 C 46.449219 147.921875 46.742188 148.382812 47.363281 148.605469 C 48.828125 149.136719 50.34375 149.085938 51.953125 149.15625 C 50.523438 151.917969 46.578125 149.652344 44.816406 148.605469 C 43.585938 147.878906 37.902344 143.683594 41.632812 142.351562 C 41.230469 144.902344 43.945312 146.707031 45.71875 147.878906 " fill-opacity="1" fill-rule="nonzero"/><path fill="#1f2750" d="M 49.625 146.09375 C 49.425781 146.011719 49.253906 145.988281 49.121094 145.742188 C 50.066406 145.324219 51.007812 144.90625 51.953125 144.488281 C 52.429688 145.917969 50.582031 145.902344 49.625 146.09375 " fill-opacity="1" fill-rule="nonzero"/><path fill="#1f2750" d="M 55.136719 146.09375 C 54.191406 146.21875 53.25 146.34375 52.304688 146.46875 C 53.140625 145.902344 54.246094 146.136719 55.136719 146.09375 " fill-opacity="1" fill-rule="nonzero"/><path fill="#1f2750" d="M 50.527344 151.648438 C 50.945312 151.402344 51.496094 151.25 51.953125 151.097656 C 51.773438 184.160156 51.589844 217.226562 51.410156 250.289062 C 51.402344 251.765625 52.019531 252.484375 50.21875 252.839844 C 47.558594 253.363281 45.207031 251.191406 43.3125 249.644531 C 40.398438 247.261719 41.410156 242.820312 41.382812 239.347656 C 41.347656 235.234375 41.316406 231.117188 41.28125 227.003906 C 41.167969 212.234375 41.050781 197.460938 40.949219 182.691406 C 40.898438 175.445312 40.847656 168.203125 40.800781 160.960938 C 40.769531 156.34375 41.25 151.214844 40.382812 146.644531 C 43.042969 149.425781 46.507812 151.863281 50.527344 151.644531 " fill-opacity="1" fill-rule="nonzero"/><path fill="#1f2750" d="M 51.777344 147.703125 C 51.535156 147.886719 51.292969 148.070312 51.054688 148.253906 C 51.308594 147.4375 51.074219 147.832031 50.703125 147 C 50.878906 146.882812 51.054688 146.765625 51.230469 146.644531 C 51.332031 147.078125 51.652344 147.359375 51.777344 147.703125 " fill-opacity="1" fill-rule="nonzero"/><path fill="#1f2750" d="M 92.375 163.253906 C 92.824219 163.519531 92.652344 165.597656 92.398438 166.46875 C 91.792969 165.085938 90.785156 163.617188 89.167969 163.429688 C 90.769531 163.089844 91.246094 162.175781 91.320312 160.589844 C 91.652344 161.519531 90.949219 163.429688 92.375 163.253906 " fill-opacity="1" fill-rule="nonzero"/><path fill="#1f2750" d="M 87.5625 161.449219 C 87.257812 162.074219 87.574219 162.714844 87.9375 163.253906 C 87.402344 163.03125 86.035156 162.359375 85.980469 161.710938 C 85.890625 160.582031 87.128906 160.949219 87.5625 161.449219 " fill-opacity="1" fill-rule="nonzero"/><path fill="#1f2750" d="M 115.535156 185.589844 C 115.660156 186.9375 114.457031 188.066406 114.636719 189.710938 C 114.238281 188.914062 113.304688 188.089844 112.351562 188.453125 C 110.929688 189 111.277344 191.429688 111.277344 192.574219 C 110.820312 191.511719 109.3125 187.589844 110.199219 186.496094 C 110.769531 185.792969 114.628906 185.617188 115.535156 185.589844 " fill-opacity="1" fill-rule="nonzero"/><path fill="#1f2750" d="M 119.265625 191.847656 C 119.273438 192.03125 119.28125 192.214844 119.289062 192.398438 C 118.949219 191.53125 118.574219 190.699219 118.046875 189.929688 C 117.453125 189.054688 116.03125 188.929688 116.105469 188.253906 C 116.273438 186.679688 119.414062 190.429688 119.265625 191.847656 " fill-opacity="1" fill-rule="nonzero"/><path fill="#1f2750" d="M 101.992188 195.0625 C 100.8125 195.402344 99.609375 195.941406 98.632812 194.898438 C 98.074219 194.300781 96.1875 194.472656 96.03125 194.160156 C 95.640625 193.378906 94.847656 190.664062 95.582031 189.886719 C 95.933594 189.515625 98.414062 189.394531 99.027344 189.226562 C 100.144531 188.921875 101.242188 188.558594 102.363281 188.277344 C 102.234375 190.546875 101.890625 192.785156 101.992188 195.0625 " fill-opacity="1" fill-rule="nonzero"/><path fill="#1f2750" d="M 115.183594 191.140625 C 116 192.839844 116.496094 194.632812 116.789062 196.492188 C 116.082031 195.074219 114.722656 191.109375 112.527344 192.21875 C 112.585938 191.382812 112.644531 190.546875 112.703125 189.707031 C 113.808594 189.910156 113.925781 192.21875 115.183594 191.140625 " fill-opacity="1" fill-rule="nonzero"/><path fill="#1f2750" d="M 86.664062 191.492188 C 87.265625 194.035156 84.210938 195.289062 85.261719 197.75 C 80.722656 198.855469 83.085938 202.886719 81.703125 205.789062 C 81.675781 204.902344 81.445312 204.046875 81.394531 203.167969 C 81.339844 202.175781 81.882812 201.261719 81.878906 200.4375 C 81.878906 199.308594 81.164062 197.863281 81.132812 196.582031 C 81.097656 195.214844 81.25 193.898438 80.824219 192.570312 C 82.753906 192.199219 84.804688 191.847656 86.664062 191.492188 " fill-opacity="1" fill-rule="nonzero"/><path fill="#1f2750" d="M 111.082031 194.160156 C 112.542969 193.503906 113.78125 197.644531 113.585938 199.007812 C 112.535156 198.207031 112.332031 196.847656 111.511719 195.878906 C 111.117188 195.414062 109.820312 195.308594 109.65625 195.0625 C 109.328125 194.578125 109.65625 192.839844 109.65625 192.222656 C 110.3125 192.765625 110.441406 193.734375 111.082031 194.160156 " fill-opacity="1" fill-rule="nonzero"/><path fill="#1f2750" d="M 108.949219 196.316406 C 109.199219 198.3125 110.011719 200.191406 110.203125 202.195312 C 109.226562 201.734375 107.8125 198.878906 106.46875 200.082031 C 105.40625 201.03125 107.304688 204.53125 107.171875 205.785156 C 105.566406 203.976562 105.03125 201.351562 104.867188 199.003906 C 107.804688 201.65625 107.019531 197.121094 106.996094 195.414062 C 107.355469 196.195312 108.128906 196.757812 108.949219 196.316406 " fill-opacity="1" fill-rule="nonzero"/><path fill="#1f2750" d="M 98.179688 196.96875 C 96.9375 196.847656 94.5 196.808594 95.480469 198.886719 C 96.09375 200.191406 96.320312 197.191406 97.828125 198.226562 C 97.496094 198.976562 96.9375 199.738281 96.148438 200.042969 C 94.230469 200.785156 94.625 197.660156 94.625 196.773438 C 95.214844 197.464844 96.816406 195.429688 98.179688 196.96875 " fill-opacity="1" fill-rule="nonzero"/><path fill="#1f2750" d="M 86.238281 198.554688 C 86.164062 198.867188 85.9375 199.195312 85.734375 199.457031 C 84.25 197.835938 82.984375 202.011719 83.582031 203.203125 C 84.003906 204.046875 87.078125 206.121094 87.6875 205.539062 C 87.871094 205.726562 88.273438 206.203125 88.390625 206.441406 C 87.203125 206.382812 86.019531 206.324219 84.832031 206.265625 C 87.039062 206.089844 83.519531 204.542969 83.121094 203.773438 C 82.003906 201.632812 83.546875 197.917969 86.238281 198.554688 " fill-opacity="1" fill-rule="nonzero"/><path fill="#1f2750" d="M 80.003906 208.574219 C 79.171875 208.964844 78.316406 208.777344 77.46875 209.027344 C 76.300781 209.371094 76.5 210.285156 77.6875 210.21875 C 78.070312 210.195312 80.183594 209.5 80.207031 209.984375 C 80.316406 212.175781 80.898438 213.09375 78.992188 214.050781 C 78.195312 214.449219 76.90625 215.207031 76.183594 214.808594 C 75.320312 214.335938 75.730469 213.042969 75.328125 212.78125 C 72.832031 211.1875 74.621094 214.605469 74.867188 215.183594 C 74.15625 215.445312 73.449219 215.375 72.734375 215.152344 C 72.085938 214.949219 71.71875 213.960938 71.617188 213.929688 C 70.230469 213.480469 69.613281 216.492188 67.730469 216.792969 C 68.105469 215.804688 68.582031 214.765625 68.71875 213.707031 C 68.859375 212.605469 68.074219 211.691406 68.101562 210.890625 C 68.136719 209.972656 69.496094 208.183594 70.210938 207.671875 C 70.035156 207.496094 69.859375 207.320312 69.683594 207.144531 C 70.183594 206.757812 70.699219 206.441406 71.285156 206.261719 C 70.699219 206.742188 70.632812 207.988281 71.527344 208.222656 C 72.070312 208.367188 72.144531 207.273438 72.835938 207.222656 C 73.398438 207.179688 73.609375 206.683594 74.074219 206.484375 C 75.046875 206.066406 77.46875 204.578125 77.015625 206.835938 C 76.761719 208.105469 75.410156 210.023438 73.964844 209.65625 C 76.253906 209.441406 74.667969 207.59375 73.4375 208.398438 C 71.941406 209.378906 74.140625 210.269531 73.261719 211.085938 C 72.730469 210.160156 70.363281 208.484375 71.109375 210.535156 C 71.183594 210.742188 72.675781 212.160156 72.953125 212.253906 C 73.777344 212.53125 74.988281 211.425781 74.335938 210.710938 C 76.5 210.785156 79.617188 206.710938 77.597656 204.996094 C 76.425781 204 75.109375 204.613281 73.988281 205.289062 C 71.121094 207.007812 72.878906 205.609375 72.910156 204.457031 C 74.964844 204.332031 75.644531 202.183594 77.300781 201.351562 C 78.105469 200.949219 79.015625 201.164062 79.847656 201.066406 C 79.90625 203.550781 80.074219 206.128906 80.003906 208.574219 " fill-opacity="1" fill-rule="nonzero"/><path fill="#1f2750" d="M 99.433594 204.808594 C 98.394531 206.148438 96.078125 205.871094 94.273438 206.085938 C 94.699219 205.863281 94.921875 205.125 95.21875 204.984375 C 95.65625 204.773438 95.773438 205.050781 96.378906 204.917969 C 97.277344 204.722656 98.957031 204.210938 99.433594 204.808594 " fill-opacity="1" fill-rule="nonzero"/><path fill="#1f2750" d="M 115.886719 212.019531 C 114.148438 212.738281 112.242188 213.003906 110.378906 213.121094 C 110.503906 211.269531 109.75 208.140625 111.804688 207.042969 C 113.0625 206.371094 114.738281 206.976562 116.0625 206.164062 C 116.246094 208.101562 115.789062 210.148438 115.886719 212.019531 " fill-opacity="1" fill-rule="nonzero"/><path fill="#1f2750" d="M 107.347656 213.628906 C 106.753906 213.695312 106.160156 213.761719 105.570312 213.828125 C 106.8125 212.457031 108.054688 211.082031 109.300781 209.710938 C 109.210938 211.054688 109.867188 214.597656 107.347656 213.628906 " fill-opacity="1" fill-rule="nonzero"/><path fill="#ffffff" d="M 71.714844 212.925781 C 70.9375 213.21875 68.347656 212.925781 69.933594 212.242188 C 70.527344 211.984375 71.679688 212.453125 71.714844 212.925781 " fill-opacity="1" fill-rule="nonzero"/><path fill="#1f2750" d="M 115.710938 219.007812 C 113.910156 219.429688 112.039062 219.566406 110.199219 219.734375 C 110.199219 217.769531 109.171875 214.425781 111.441406 214.226562 C 112.875 214.101562 114.53125 213.382812 115.886719 213.476562 C 115.828125 215.300781 115.769531 217.261719 115.710938 219.007812 " fill-opacity="1" fill-rule="nonzero"/><path fill="#1f2750" d="M 73.667969 218.628906 C 73.289062 218.625 72.988281 218.582031 73.007812 219.15625 C 73.050781 220.253906 75.347656 219.824219 75.769531 219.800781 C 77.484375 219.695312 77.089844 221.296875 77.433594 222.824219 C 77.714844 224.082031 78.199219 225.578125 78.101562 226.625 C 78.003906 227.699219 78.738281 227.660156 77.117188 228.085938 C 75.679688 228.460938 74.128906 228.472656 72.652344 228.472656 C 69.601562 228.472656 66.488281 227.914062 63.523438 227.21875 C 64.417969 225.132812 65.308594 223.046875 66.203125 220.964844 C 67.800781 223.484375 70.992188 220.097656 68.355469 218.121094 C 69.460938 217.917969 69.789062 217.050781 70.660156 216.511719 C 72.074219 215.640625 71.816406 216.285156 73.164062 216.511719 C 75.664062 216.933594 78.816406 216 80.824219 214.53125 C 78.96875 216.511719 76.800781 219.707031 73.667969 218.628906 " fill-opacity="1" fill-rule="nonzero"/><path fill="#1f2750" d="M 109.125 219.882812 C 107.289062 220.246094 105.453125 220.605469 103.613281 220.964844 C 103.613281 218.988281 102.808594 216.269531 104.625 215.300781 C 105.894531 214.625 107.75 214.996094 109.125 214.53125 L 109.125 219.882812 " fill-opacity="1" fill-rule="nonzero"/><path fill="#1f2750" d="M 88.738281 216.96875 C 87.679688 218.957031 85.398438 219.6875 89.289062 220.007812 C 88.949219 221.410156 89.386719 222.972656 87.859375 223.777344 C 87.335938 224.050781 85.910156 224.039062 85.226562 224.261719 C 84.304688 224.554688 83.488281 224.933594 82.503906 225.03125 L 82.503906 221.191406 C 82.503906 219.582031 82.183594 218.683594 83.164062 218.003906 C 84.277344 217.230469 87.40625 216.804688 88.738281 216.96875 " fill-opacity="1" fill-rule="nonzero"/><path fill="#1f2750" d="M 97.378906 222.042969 C 97.324219 220.578125 101.195312 218.089844 102.359375 217.042969 C 102.359375 217.578125 102.582031 221.097656 102.246094 221.160156 C 100.621094 221.453125 99 221.75 97.378906 222.042969 " fill-opacity="1" fill-rule="nonzero"/><path fill="#1f2750" d="M 81.253906 226.617188 C 80.761719 226.199219 80.386719 226.613281 79.71875 226.882812 C 78.710938 227.285156 78.75 225.171875 78.574219 224.449219 C 78.175781 222.789062 78.359375 219.929688 77.695312 218.953125 C 78.804688 218.429688 80.085938 218.429688 81.277344 218.226562 C 81.277344 221.007812 81.371094 223.878906 81.253906 226.617188 " fill-opacity="1" fill-rule="nonzero"/><path fill="#1f2750" d="M 110.027344 227.046875 C 110.058594 225.898438 109.492188 221.75 110.203125 220.96875 C 111.222656 219.839844 114.464844 221.097656 115.710938 219.910156 L 115.710938 226.246094 C 115.710938 226.542969 110.675781 226.964844 110.027344 227.046875 " fill-opacity="1" fill-rule="nonzero"/><path fill="#1f2750" d="M 108.949219 227.222656 C 107.109375 227.597656 105.265625 227.960938 103.417969 228.300781 C 103.417969 226.683594 102.542969 222.40625 104.261719 222.058594 C 105.839844 221.738281 107.355469 221.195312 108.949219 220.96875 L 108.949219 227.222656 " fill-opacity="1" fill-rule="nonzero"/><path fill="#1f2750" d="M 102.164062 222.394531 C 102.164062 223.464844 102.820312 227.921875 102.164062 228.652344 C 101.726562 229.136719 97.816406 229.421875 97.003906 229.554688 C 96.953125 228.519531 96.609375 223.800781 97.203125 223.121094 C 97.753906 222.488281 101.214844 222.726562 102.164062 222.394531 " fill-opacity="1" fill-rule="nonzero"/><path fill="#1f2750" d="M 95.703125 229.484375 C 94.152344 229.800781 92.679688 230.410156 91.070312 230.210938 C 91.300781 227.871094 92.132812 223.222656 95.503906 223.226562 C 95.570312 225.3125 95.636719 227.398438 95.703125 229.484375 " fill-opacity="1" fill-rule="nonzero"/><path fill="#1f2750" d="M 86.789062 225.183594 C 85.84375 226.503906 84.886719 229.21875 83.582031 229.832031 C 84.222656 230.136719 83.945312 230.886719 83.757812 231.640625 C 83.179688 230.804688 82.023438 230.019531 83.230469 229.128906 C 82.332031 228.429688 82.855469 227.242188 82.507812 226.265625 C 83.964844 226.070312 85.378906 225.199219 86.789062 225.183594 " fill-opacity="1" fill-rule="nonzero"/><path fill="#1f2750" d="M 80.902344 229.304688 C 79.972656 229.496094 79.273438 229.230469 79.53125 228.28125 C 79.695312 227.675781 81.035156 227.734375 81.453125 227.148438 C 81.5 227.921875 81.652344 228.882812 80.902344 229.304688 " fill-opacity="1" fill-rule="nonzero"/><path fill="#1f2750" d="M 115.710938 232.574219 C 113.816406 232.875 111.921875 233.175781 110.027344 233.476562 L 110.027344 228.421875 C 110.027344 228.089844 112.589844 227.859375 112.988281 227.816406 C 113.324219 227.78125 115.710938 227.507812 115.710938 227.886719 L 115.710938 232.574219 " fill-opacity="1" fill-rule="nonzero"/><path fill="#1f2750" d="M 87.664062 228.050781 C 88.128906 229.476562 86.671875 231.984375 85.492188 231.488281 C 85.835938 230.613281 87.121094 228.128906 87.664062 228.050781 " fill-opacity="1" fill-rule="nonzero"/><path fill="#1f2750" d="M 108.949219 233.652344 C 107.046875 234.011719 105.144531 234.375 103.242188 234.734375 C 103.234375 234.089844 103.398438 233.617188 103.792969 233.300781 C 102.875 232.628906 104.398438 231.453125 103.417969 231.339844 C 103.417969 229.183594 103.484375 229.488281 105.40625 229.183594 C 106.59375 228.992188 107.769531 228.710938 108.949219 228.476562 C 108.949219 230.203125 108.949219 231.929688 108.949219 233.652344 " fill-opacity="1" fill-rule="nonzero"/><path fill="#1f2750" d="M 69.332031 229.128906 C 69.558594 230.542969 67.214844 230.742188 66.257812 231.332031 C 64.101562 232.664062 63.222656 233.9375 63.449219 236.464844 C 62.207031 236.46875 60.929688 236.320312 59.714844 236.640625 L 59.714844 232.085938 C 59.714844 230.269531 59.464844 230.371094 61.078125 230.097656 C 61.929688 229.957031 65.191406 228.863281 65.082031 230.066406 C 64.96875 231.363281 66.300781 232.230469 66.300781 230.726562 C 66.300781 228.375 66.738281 228.785156 69.332031 229.128906 " fill-opacity="1" fill-rule="nonzero"/><path fill="#1f2750" d="M 102.363281 234.65625 C 100.652344 234.949219 98.941406 235.265625 97.203125 235.382812 L 97.203125 234.832031 C 97.574219 234.867188 97.652344 234.742188 97.90625 234.65625 C 97.007812 234.320312 96.515625 231.320312 97.203125 230.539062 C 97.71875 229.953125 101.191406 229.53125 102.167969 229.480469 C 102.238281 231.207031 102.035156 232.953125 102.363281 234.65625 " fill-opacity="1" fill-rule="nonzero"/><path fill="#1f2750" d="M 74.140625 233.402344 C 74.976562 233.507812 77.625 234.386719 77.433594 232.9375 C 77.230469 231.378906 73.554688 232.300781 74.558594 230.605469 C 75.558594 228.914062 80.472656 230.304688 81.691406 231.308594 C 83.925781 233.144531 82.164062 234.535156 80.539062 235.945312 C 77.714844 238.398438 68.738281 239.636719 65.621094 237.257812 C 62.574219 234.929688 66.488281 231.792969 68.980469 231.464844 C 69.125 232.988281 68.710938 234.921875 71.132812 234.769531 C 73.570312 234.613281 73.222656 232.074219 70.582031 232.34375 C 71.117188 231.507812 71.652344 230.671875 72.1875 229.832031 C 73.496094 230.710938 72.398438 232.976562 74.140625 233.402344 " fill-opacity="1" fill-rule="nonzero"/><path fill="#1f2750" d="M 95.753906 235.738281 C 94.179688 235.773438 92.714844 236.449219 91.140625 236.464844 C 91.136719 236.230469 91.414062 234.902344 91.40625 234.886719 C 91.023438 234.363281 91.015625 233.332031 91.140625 232.71875 C 91.402344 231.4375 91.277344 231.667969 92.691406 231.398438 C 93.714844 231.199219 94.738281 230.992188 95.753906 230.734375 L 95.753906 235.738281 " fill-opacity="1" fill-rule="nonzero"/><path fill="#1f2750" d="M 82.679688 237.320312 C 82.289062 238.675781 76.867188 238.875 75.390625 239.480469 L 75.390625 239.128906 C 77.128906 238.648438 78.851562 238.074219 80.453125 237.242188 C 81.871094 236.507812 81.921875 236.136719 82.679688 237.320312 " fill-opacity="1" fill-rule="nonzero"/><path fill="#1f2750" d="M 65.425781 238.578125 C 65.433594 239.179688 65.082031 241.109375 65.773438 241.460938 C 67.046875 242.109375 66.667969 239.644531 66.675781 239.128906 C 69.035156 239.921875 71.765625 239.570312 74.164062 239.128906 C 72.519531 240.375 70.386719 240.445312 68.453125 240.910156 C 65.480469 241.628906 62.5625 242.371094 59.539062 242.894531 C 59.605469 241.398438 59.589844 239.855469 60.109375 238.753906 C 60.378906 238.183594 60.34375 238.429688 60.265625 237.894531 C 61.988281 237.097656 64.03125 237.476562 65.425781 238.578125 " fill-opacity="1" fill-rule="nonzero"/><path fill="#1f2750" d="M 68.082031 210.890625 C 68.582031 209.800781 69.039062 208.316406 70.121094 207.71875 C 69.976562 207.527344 69.828125 207.335938 69.683594 207.144531 C 70.152344 206.640625 70.660156 206.308594 71.285156 206.265625 C 70.78125 206.640625 70.824219 207.371094 70.890625 207.851562 C 70.804688 207.777344 70.984375 207.78125 70.957031 207.742188 C 71.722656 208.71875 73.703125 206.234375 74.910156 205.78125 C 78.902344 204.269531 76.4375 210.273438 73.964844 209.65625 C 76.183594 209.09375 74.410156 207.585938 73.328125 208.445312 C 72.21875 209.328125 73.605469 209.863281 73.523438 210.363281 C 73.386719 211.234375 73.402344 211.097656 72.515625 210.207031 C 71.785156 209.476562 70.339844 209.296875 71.109375 210.539062 C 72.035156 210.949219 72.625 212.761719 73.789062 212.035156 C 73.835938 212.554688 73.683594 213.191406 73.855469 213.667969 C 74.003906 214.078125 74.824219 214.28125 74.800781 214.789062 C 74.730469 216.28125 72.289062 214.878906 71.660156 214.546875 C 70.984375 214.191406 72.160156 213.210938 70.714844 213.996094 C 70.347656 214.199219 70.085938 215.136719 69.816406 215.472656 C 69.265625 216.152344 68.710938 216.820312 67.730469 216.796875 C 68.453125 214.929688 69.429688 212.6875 68.082031 210.890625 " fill-opacity="1" fill-rule="nonzero"/><g fill="#1f2750" fill-opacity="1"><g transform="translate(135.680928, 183.556013)"><g><path d="M 5.046875 -38.4375 L 21.75 -38.4375 C 25.738281 -38.4375 28.882812 -37.582031 31.1875 -35.875 C 33.488281 -34.175781 34.640625 -31.828125 34.640625 -28.828125 C 34.640625 -26.671875 34.035156 -24.832031 32.828125 -23.3125 C 31.617188 -21.789062 29.972656 -20.773438 27.890625 -20.265625 C 30.453125 -19.828125 32.460938 -18.742188 33.921875 -17.015625 C 35.390625 -15.296875 36.125 -13.140625 36.125 -10.546875 C 36.125 -7.242188 34.878906 -4.660156 32.390625 -2.796875 C 29.898438 -0.929688 26.476562 0 22.125 0 L 5.046875 0 Z M 11.53125 -32.671875 L 11.53125 -22.515625 L 21.40625 -22.515625 C 23.457031 -22.515625 25.066406 -22.96875 26.234375 -23.875 C 27.410156 -24.789062 28 -26.054688 28 -27.671875 C 28 -29.285156 27.421875 -30.519531 26.265625 -31.375 C 25.117188 -32.238281 23.5 -32.671875 21.40625 -32.671875 Z M 11.53125 -16.796875 L 11.53125 -5.765625 L 21.40625 -5.765625 C 23.96875 -5.765625 25.953125 -6.25 27.359375 -7.21875 C 28.773438 -8.1875 29.484375 -9.566406 29.484375 -11.359375 C 29.484375 -13.046875 28.769531 -14.375 27.34375 -15.34375 C 25.914062 -16.3125 23.9375 -16.796875 21.40625 -16.796875 Z M 11.53125 -16.796875 "/></g></g></g><g fill="#1f2750" fill-opacity="1"><g transform="translate(174.433757, 183.556013)"><g><path d="M 17.1875 -29.4375 C 21.6875 -29.4375 25.34375 -28.070312 28.15625 -25.34375 C 30.976562 -22.613281 32.390625 -19.035156 32.390625 -14.609375 C 32.390625 -10.210938 30.976562 -6.640625 28.15625 -3.890625 C 25.34375 -1.148438 21.6875 0.21875 17.1875 0.21875 C 12.644531 0.21875 8.960938 -1.148438 6.140625 -3.890625 C 3.328125 -6.640625 1.921875 -10.210938 1.921875 -14.609375 C 1.921875 -19.035156 3.328125 -22.613281 6.140625 -25.34375 C 8.960938 -28.070312 12.644531 -29.4375 17.1875 -29.4375 Z M 17.1875 -24 C 14.550781 -24 12.398438 -23.117188 10.734375 -21.359375 C 9.066406 -19.597656 8.234375 -17.328125 8.234375 -14.546875 C 8.234375 -11.734375 9.066406 -9.445312 10.734375 -7.6875 C 12.398438 -5.925781 14.550781 -5.046875 17.1875 -5.046875 C 19.820312 -5.046875 21.960938 -5.925781 23.609375 -7.6875 C 25.253906 -9.445312 26.078125 -11.734375 26.078125 -14.546875 C 26.078125 -17.328125 25.242188 -19.597656 23.578125 -21.359375 C 21.910156 -23.117188 19.78125 -24 17.1875 -24 Z M 17.1875 -24 "/></g></g></g><g fill="#1f2750" fill-opacity="1"><g transform="translate(208.740441, 183.556013)"><g><path d="M 17.1875 -29.4375 C 21.6875 -29.4375 25.34375 -28.070312 28.15625 -25.34375 C 30.976562 -22.613281 32.390625 -19.035156 32.390625 -14.609375 C 32.390625 -10.210938 30.976562 -6.640625 28.15625 -3.890625 C 25.34375 -1.148438 21.6875 0.21875 17.1875 0.21875 C 12.644531 0.21875 8.960938 -1.148438 6.140625 -3.890625 C 3.328125 -6.640625 1.921875 -10.210938 1.921875 -14.609375 C 1.921875 -19.035156 3.328125 -22.613281 6.140625 -25.34375 C 8.960938 -28.070312 12.644531 -29.4375 17.1875 -29.4375 Z M 17.1875 -24 C 14.550781 -24 12.398438 -23.117188 10.734375 -21.359375 C 9.066406 -19.597656 8.234375 -17.328125 8.234375 -14.546875 C 8.234375 -11.734375 9.066406 -9.445312 10.734375 -7.6875 C 12.398438 -5.925781 14.550781 -5.046875 17.1875 -5.046875 C 19.820312 -5.046875 21.960938 -5.925781 23.609375 -7.6875 C 25.253906 -9.445312 26.078125 -11.734375 26.078125 -14.546875 C 26.078125 -17.328125 25.242188 -19.597656 23.578125 -21.359375 C 21.910156 -23.117188 19.78125 -24 17.1875 -24 Z M 17.1875 -24 "/></g></g></g><g fill="#1f2750" fill-opacity="1"><g transform="translate(243.047126, 183.556013)"><g><path d="M 16.203125 -13.390625 L 11.25 -8.1875 L 11.25 0 L 4.9375 0 L 4.9375 -40.734375 L 11.25 -40.734375 L 11.25 -16.140625 L 24.15625 -29.203125 L 31.40625 -29.203125 L 20.59375 -17.90625 L 32.234375 0 L 24.765625 0 Z M 16.203125 -13.390625 "/></g></g></g><g fill="#1f2750" fill-opacity="1"><g transform="translate(135.680928, 213.4598)"><g><path d="M 12.875 -22.515625 C 14.457031 -22.515625 16 -22.207031 17.5 -21.59375 C 19.007812 -20.988281 20.304688 -20.144531 21.390625 -19.0625 L 19.1875 -16.296875 C 18.375 -17.179688 17.410156 -17.878906 16.296875 -18.390625 C 15.191406 -18.898438 14.070312 -19.15625 12.9375 -19.15625 C 10.695312 -19.15625 8.800781 -18.390625 7.25 -16.859375 C 5.707031 -15.335938 4.9375 -13.476562 4.9375 -11.28125 C 4.9375 -9.050781 5.707031 -7.171875 7.25 -5.640625 C 8.800781 -4.117188 10.695312 -3.359375 12.9375 -3.359375 C 15.269531 -3.359375 17.351562 -4.242188 19.1875 -6.015625 L 21.421875 -3.53125 C 20.273438 -2.394531 18.929688 -1.492188 17.390625 -0.828125 C 15.859375 -0.171875 14.3125 0.15625 12.75 0.15625 C 9.457031 0.15625 6.691406 -0.9375 4.453125 -3.125 C 2.210938 -5.3125 1.09375 -8.019531 1.09375 -11.25 C 1.09375 -14.425781 2.226562 -17.097656 4.5 -19.265625 C 6.769531 -21.429688 9.5625 -22.515625 12.875 -22.515625 Z M 12.875 -22.515625 "/></g></g></g><g fill="#1f2750" fill-opacity="1"><g transform="translate(157.995773, 213.4598)"><g><path d="M 10.03125 -17.171875 C 12.65625 -17.171875 14.789062 -16.375 16.4375 -14.78125 C 18.082031 -13.1875 18.90625 -11.097656 18.90625 -8.515625 C 18.90625 -5.953125 18.082031 -3.867188 16.4375 -2.265625 C 14.789062 -0.671875 12.65625 0.125 10.03125 0.125 C 7.375 0.125 5.222656 -0.671875 3.578125 -2.265625 C 1.941406 -3.867188 1.125 -5.953125 1.125 -8.515625 C 1.125 -11.097656 1.941406 -13.1875 3.578125 -14.78125 C 5.222656 -16.375 7.375 -17.171875 10.03125 -17.171875 Z M 10.03125 -14 C 8.488281 -14 7.234375 -13.484375 6.265625 -12.453125 C 5.296875 -11.429688 4.8125 -10.109375 4.8125 -8.484375 C 4.8125 -6.835938 5.296875 -5.503906 6.265625 -4.484375 C 7.234375 -3.460938 8.484375 -2.953125 10.015625 -2.953125 C 11.554688 -2.953125 12.804688 -3.460938 13.765625 -4.484375 C 14.734375 -5.503906 15.21875 -6.835938 15.21875 -8.484375 C 15.21875 -10.109375 14.726562 -11.429688 13.75 -12.453125 C 12.78125 -13.484375 11.539062 -14 10.03125 -14 Z M 10.03125 -14 "/></g></g></g><g fill="#1f2750" fill-opacity="1"><g transform="translate(178.005503, 213.4598)"><g><path d="M 6.5625 0 L 2.890625 0 L 2.890625 -23.765625 L 6.5625 -23.765625 Z M 6.5625 0 "/></g></g></g><g fill="#1f2750" fill-opacity="1"><g transform="translate(187.450094, 213.4598)"><g><path d="M 6.5625 0 L 2.890625 0 L 2.890625 -23.765625 L 6.5625 -23.765625 Z M 6.5625 0 "/></g></g></g><g fill="#1f2750" fill-opacity="1"><g transform="translate(196.894685, 213.4598)"><g><path d="M 9.734375 -17.171875 C 12.660156 -17.171875 14.78125 -16.289062 16.09375 -14.53125 C 17.40625 -12.769531 17.945312 -10.296875 17.71875 -7.109375 L 4.84375 -7.109375 C 5.132812 -5.785156 5.75 -4.742188 6.6875 -3.984375 C 7.632812 -3.222656 8.78125 -2.84375 10.125 -2.84375 C 12.039062 -2.84375 13.640625 -3.507812 14.921875 -4.84375 L 16.875 -2.75 C 15.125 -0.832031 12.773438 0.125 9.828125 0.125 C 7.203125 0.125 5.09375 -0.664062 3.5 -2.25 C 1.914062 -3.84375 1.125 -5.921875 1.125 -8.484375 C 1.125 -11.046875 1.921875 -13.128906 3.515625 -14.734375 C 5.117188 -16.335938 7.191406 -17.148438 9.734375 -17.171875 Z M 4.765625 -9.796875 L 14.515625 -9.796875 C 14.453125 -11.171875 13.992188 -12.25 13.140625 -13.03125 C 12.285156 -13.820312 11.160156 -14.21875 9.765625 -14.21875 C 8.421875 -14.21875 7.304688 -13.820312 6.421875 -13.03125 C 5.535156 -12.25 4.984375 -11.171875 4.765625 -9.796875 Z M 4.765625 -9.796875 "/></g></g></g><g fill="#1f2750" fill-opacity="1"><g transform="translate(215.719837, 213.4598)"><g><path d="M 9.703125 -17.171875 C 12.773438 -17.171875 15.125 -16.238281 16.75 -14.375 L 14.734375 -12.015625 C 13.453125 -13.316406 11.828125 -13.957031 9.859375 -13.9375 C 8.390625 -13.9375 7.179688 -13.425781 6.234375 -12.40625 C 5.285156 -11.394531 4.8125 -10.085938 4.8125 -8.484375 C 4.8125 -6.890625 5.285156 -5.582031 6.234375 -4.5625 C 7.179688 -3.550781 8.390625 -3.046875 9.859375 -3.046875 C 12.046875 -3.046875 13.722656 -3.726562 14.890625 -5.09375 L 16.9375 -3.046875 C 15.34375 -0.929688 12.929688 0.125 9.703125 0.125 C 7.160156 0.125 5.09375 -0.664062 3.5 -2.25 C 1.914062 -3.84375 1.125 -5.921875 1.125 -8.484375 C 1.125 -11.066406 1.914062 -13.160156 3.5 -14.765625 C 5.09375 -16.367188 7.160156 -17.171875 9.703125 -17.171875 Z M 9.703125 -17.171875 "/></g></g></g><g fill="#1f2750" fill-opacity="1"><g transform="translate(233.77661, 213.4598)"><g><path d="M 11.4375 -3.90625 L 12.359375 -1.09375 C 10.953125 -0.257812 9.554688 0.15625 8.171875 0.15625 C 6.785156 0.15625 5.640625 -0.257812 4.734375 -1.09375 C 3.835938 -1.925781 3.390625 -3.164062 3.390625 -4.8125 L 3.390625 -13.640625 L 1 -13.640625 L 1 -16.40625 L 3.390625 -16.40625 L 3.390625 -21.078125 L 7.046875 -21.078125 L 7.046875 -16.40625 L 12.078125 -16.40625 L 12.078125 -13.640625 L 7.046875 -13.640625 L 7.046875 -5.484375 C 7.046875 -4.628906 7.191406 -4.03125 7.484375 -3.6875 C 7.785156 -3.34375 8.25 -3.171875 8.875 -3.171875 C 9.550781 -3.171875 10.40625 -3.414062 11.4375 -3.90625 Z M 11.4375 -3.90625 "/></g></g></g><g fill="#1f2750" fill-opacity="1"><g transform="translate(246.806943, 213.4598)"><g><path d="M 3.015625 -23.53125 C 3.421875 -23.945312 3.929688 -24.15625 4.546875 -24.15625 C 5.171875 -24.15625 5.679688 -23.945312 6.078125 -23.53125 C 6.484375 -23.113281 6.6875 -22.570312 6.6875 -21.90625 C 6.6875 -21.269531 6.484375 -20.742188 6.078125 -20.328125 C 5.679688 -19.910156 5.171875 -19.703125 4.546875 -19.703125 C 3.929688 -19.703125 3.421875 -19.910156 3.015625 -20.328125 C 2.609375 -20.742188 2.40625 -21.269531 2.40625 -21.90625 C 2.40625 -22.570312 2.609375 -23.113281 3.015625 -23.53125 Z M 6.375 0 L 2.71875 0 L 2.71875 -17.046875 L 6.375 -17.046875 Z M 6.375 0 "/></g></g></g><g fill="#1f2750" fill-opacity="1"><g transform="translate(255.899365, 213.4598)"><g><path d="M 10.03125 -17.171875 C 12.65625 -17.171875 14.789062 -16.375 16.4375 -14.78125 C 18.082031 -13.1875 18.90625 -11.097656 18.90625 -8.515625 C 18.90625 -5.953125 18.082031 -3.867188 16.4375 -2.265625 C 14.789062 -0.671875 12.65625 0.125 10.03125 0.125 C 7.375 0.125 5.222656 -0.671875 3.578125 -2.265625 C 1.941406 -3.867188 1.125 -5.953125 1.125 -8.515625 C 1.125 -11.097656 1.941406 -13.1875 3.578125 -14.78125 C 5.222656 -16.375 7.375 -17.171875 10.03125 -17.171875 Z M 10.03125 -14 C 8.488281 -14 7.234375 -13.484375 6.265625 -12.453125 C 5.296875 -11.429688 4.8125 -10.109375 4.8125 -8.484375 C 4.8125 -6.835938 5.296875 -5.503906 6.265625 -4.484375 C 7.234375 -3.460938 8.484375 -2.953125 10.015625 -2.953125 C 11.554688 -2.953125 12.804688 -3.460938 13.765625 -4.484375 C 14.734375 -5.503906 15.21875 -6.835938 15.21875 -8.484375 C 15.21875 -10.109375 14.726562 -11.429688 13.75 -12.453125 C 12.78125 -13.484375 11.539062 -14 10.03125 -14 Z M 10.03125 -14 "/></g></g></g><g fill="#1f2750" fill-opacity="1"><g transform="translate(275.909095, 213.4598)"><g><path d="M 12.6875 -17.171875 C 14.664062 -17.171875 16.21875 -16.585938 17.34375 -15.421875 C 18.46875 -14.253906 19.03125 -12.648438 19.03125 -10.609375 L 19.03125 0 L 15.34375 0 L 15.34375 -9.578125 C 15.34375 -10.859375 14.976562 -11.863281 14.25 -12.59375 C 13.53125 -13.332031 12.53125 -13.703125 11.25 -13.703125 C 9.875 -13.679688 8.753906 -13.242188 7.890625 -12.390625 C 7.023438 -11.535156 6.53125 -10.425781 6.40625 -9.0625 L 6.40625 0 L 2.71875 0 L 2.71875 -17.046875 L 6.40625 -17.046875 L 6.40625 -13.78125 C 7.5625 -16.039062 9.65625 -17.171875 12.6875 -17.171875 Z M 12.6875 -17.171875 "/></g></g></g><g fill="#1f2750" fill-opacity="1"><g transform="translate(135.680928, 230.069358)"><g><path d="M 6.203125 0 L 4.578125 0 L 2.296875 -4.078125 L 1.71875 -3.390625 L 1.71875 0 L 0.328125 0 L 0.328125 -8.734375 L 1.71875 -8.734375 L 1.71875 -5.3125 L 4.4375 -8.734375 L 6.21875 -8.734375 L 3.171875 -5.125 Z M 6.203125 0 "/></g></g></g><g fill="#1f2750" fill-opacity="1"><g transform="translate(144.539746, 230.069358)"><g><path d="M 5.921875 0 L 4.3125 0 L 1.71875 -6.34375 L 1.71875 0 L 0.328125 0 L 0.328125 -8.734375 L 2.0625 -8.734375 L 4.53125 -2.71875 L 4.53125 -8.734375 L 5.921875 -8.734375 Z M 5.921875 0 "/></g></g></g><g fill="#1f2750" fill-opacity="1"><g transform="translate(153.398564, 230.069358)"><g><path d="M -0.21875 -4.375 C -0.21875 -4.957031 -0.15625 -5.519531 -0.03125 -6.0625 C 0.09375 -6.613281 0.285156 -7.09375 0.546875 -7.5 C 0.804688 -7.914062 1.148438 -8.25 1.578125 -8.5 C 2.003906 -8.757812 2.519531 -8.890625 3.125 -8.890625 C 3.726562 -8.890625 4.242188 -8.757812 4.671875 -8.5 C 5.097656 -8.25 5.441406 -7.914062 5.703125 -7.5 C 5.972656 -7.09375 6.171875 -6.613281 6.296875 -6.0625 C 6.421875 -5.519531 6.484375 -4.957031 6.484375 -4.375 C 6.484375 -3.789062 6.421875 -3.226562 6.296875 -2.6875 C 6.171875 -2.144531 5.976562 -1.660156 5.71875 -1.234375 C 5.457031 -0.816406 5.113281 -0.476562 4.6875 -0.21875 C 4.257812 0.03125 3.738281 0.15625 3.125 0.15625 C 2.507812 0.15625 1.988281 0.03125 1.5625 -0.21875 C 1.144531 -0.476562 0.800781 -0.816406 0.53125 -1.234375 C 0.269531 -1.660156 0.0820312 -2.144531 -0.03125 -2.6875 C -0.15625 -3.226562 -0.21875 -3.789062 -0.21875 -4.375 Z M 1.171875 -4.375 C 1.171875 -3.976562 1.195312 -3.582031 1.25 -3.1875 C 1.3125 -2.800781 1.414062 -2.453125 1.5625 -2.140625 C 1.707031 -1.828125 1.90625 -1.570312 2.15625 -1.375 C 2.40625 -1.1875 2.726562 -1.09375 3.125 -1.09375 C 3.519531 -1.09375 3.84375 -1.1875 4.09375 -1.375 C 4.34375 -1.570312 4.539062 -1.828125 4.6875 -2.140625 C 4.832031 -2.453125 4.9375 -2.800781 5 -3.1875 C 5.0625 -3.582031 5.09375 -3.976562 5.09375 -4.375 C 5.09375 -4.769531 5.0625 -5.160156 5 -5.546875 C 4.9375 -5.929688 4.832031 -6.28125 4.6875 -6.59375 C 4.539062 -6.90625 4.335938 -7.15625 4.078125 -7.34375 C 3.828125 -7.539062 3.507812 -7.640625 3.125 -7.640625 C 2.488281 -7.640625 2.003906 -7.351562 1.671875 -6.78125 C 1.335938 -6.207031 1.171875 -5.40625 1.171875 -4.375 Z M 1.171875 -4.375 "/></g></g></g><g fill="#1f2750" fill-opacity="1"><g transform="translate(162.25738, 230.069358)"><g><path d="M 6.671875 -8.734375 L 5.3125 0 L 3.890625 0 L 3.109375 -3.765625 L 2.359375 0 L 0.9375 0 L -0.421875 -8.734375 L 1.015625 -8.734375 L 1.828125 -2.859375 L 2.453125 -6.25 L 3.78125 -6.25 L 4.40625 -2.859375 L 5.21875 -8.734375 Z M 6.671875 -8.734375 "/></g></g></g><g fill="#1f2750" fill-opacity="1"><g transform="translate(171.116199, 230.069358)"><g><path d="M 5.921875 0 L 0.328125 0 L 0.328125 -8.734375 L 1.71875 -8.734375 L 1.71875 -1.25 L 5.921875 -1.25 Z M 5.921875 0 "/></g></g></g><g fill="#1f2750" fill-opacity="1"><g transform="translate(179.975017, 230.069358)"><g><path d="M 5.921875 0 L 0.328125 0 L 0.328125 -8.734375 L 5.921875 -8.734375 L 5.921875 -7.484375 L 1.71875 -7.484375 L 1.71875 -5.078125 L 4.984375 -5.078125 L 4.984375 -3.828125 L 1.71875 -3.828125 L 1.71875 -1.25 L 5.921875 -1.25 Z M 5.921875 0 "/></g></g></g><g fill="#1f2750" fill-opacity="1"><g transform="translate(188.833836, 230.069358)"><g><path d="M 6.53125 -4.375 C 6.53125 -3.789062 6.46875 -3.234375 6.34375 -2.703125 C 6.21875 -2.171875 6.019531 -1.703125 5.75 -1.296875 C 5.488281 -0.898438 5.144531 -0.582031 4.71875 -0.34375 C 4.289062 -0.113281 3.773438 0 3.171875 0 L 0.328125 0 L 0.328125 -8.734375 L 3.171875 -8.734375 C 3.765625 -8.734375 4.273438 -8.613281 4.703125 -8.375 C 5.128906 -8.144531 5.476562 -7.828125 5.75 -7.421875 C 6.019531 -7.023438 6.21875 -6.5625 6.34375 -6.03125 C 6.46875 -5.507812 6.53125 -4.957031 6.53125 -4.375 Z M 5.140625 -4.375 C 5.140625 -5.382812 4.96875 -6.15625 4.625 -6.6875 C 4.28125 -7.21875 3.796875 -7.484375 3.171875 -7.484375 L 1.71875 -7.484375 L 1.71875 -1.25 L 3.171875 -1.25 C 3.796875 -1.25 4.28125 -1.519531 4.625 -2.0625 C 4.96875 -2.601562 5.140625 -3.375 5.140625 -4.375 Z M 5.140625 -4.375 "/></g></g></g><g fill="#1f2750" fill-opacity="1"><g transform="translate(197.692651, 230.069358)"><g><path d="M 6.578125 -4.34375 C 6.578125 -3.75 6.519531 -3.179688 6.40625 -2.640625 C 6.289062 -2.097656 6.097656 -1.617188 5.828125 -1.203125 C 5.554688 -0.796875 5.207031 -0.46875 4.78125 -0.21875 C 4.351562 0.03125 3.832031 0.15625 3.21875 0.15625 C 2.601562 0.15625 2.082031 0.03125 1.65625 -0.21875 C 1.238281 -0.476562 0.894531 -0.8125 0.625 -1.21875 C 0.351562 -1.632812 0.15625 -2.113281 0.03125 -2.65625 C -0.0820312 -3.207031 -0.140625 -3.773438 -0.140625 -4.359375 C -0.140625 -4.941406 -0.0820312 -5.503906 0.03125 -6.046875 C 0.15625 -6.597656 0.351562 -7.082031 0.625 -7.5 C 0.894531 -7.914062 1.238281 -8.25 1.65625 -8.5 C 2.082031 -8.757812 2.601562 -8.890625 3.21875 -8.890625 C 3.394531 -8.890625 3.570312 -8.863281 3.75 -8.8125 C 3.9375 -8.757812 4.113281 -8.679688 4.28125 -8.578125 C 4.445312 -8.484375 4.59375 -8.363281 4.71875 -8.21875 C 4.84375 -8.070312 4.929688 -7.898438 4.984375 -7.703125 L 4.984375 -8.734375 L 6.25 -8.734375 L 6.25 -5.640625 L 4.984375 -5.640625 C 4.984375 -5.910156 4.941406 -6.164062 4.859375 -6.40625 C 4.773438 -6.65625 4.65625 -6.867188 4.5 -7.046875 C 4.34375 -7.234375 4.15625 -7.378906 3.9375 -7.484375 C 3.71875 -7.585938 3.476562 -7.640625 3.21875 -7.640625 C 2.820312 -7.640625 2.5 -7.539062 2.25 -7.34375 C 2 -7.144531 1.796875 -6.890625 1.640625 -6.578125 C 1.492188 -6.265625 1.390625 -5.914062 1.328125 -5.53125 C 1.273438 -5.144531 1.25 -4.753906 1.25 -4.359375 C 1.25 -3.960938 1.273438 -3.570312 1.328125 -3.1875 C 1.390625 -2.800781 1.492188 -2.453125 1.640625 -2.140625 C 1.796875 -1.828125 2 -1.570312 2.25 -1.375 C 2.5 -1.1875 2.820312 -1.09375 3.21875 -1.09375 C 3.789062 -1.09375 4.25 -1.273438 4.59375 -1.640625 C 4.945312 -2.003906 5.1875 -2.566406 5.3125 -3.328125 L 3.46875 -3.328125 L 3.46875 -4.5625 L 6.578125 -4.5625 Z M 6.578125 -4.34375 "/></g></g></g><g fill="#1f2750" fill-opacity="1"><g transform="translate(206.551469, 230.069358)"><g><path d="M 5.921875 0 L 0.328125 0 L 0.328125 -8.734375 L 5.921875 -8.734375 L 5.921875 -7.484375 L 1.71875 -7.484375 L 1.71875 -5.078125 L 4.984375 -5.078125 L 4.984375 -3.828125 L 1.71875 -3.828125 L 1.71875 -1.25 L 5.921875 -1.25 Z M 5.921875 0 "/></g></g></g><g fill="#1f2750" fill-opacity="1"><g transform="translate(215.410288, 230.069358)"><g/></g></g><g fill="#1f2750" fill-opacity="1"><g transform="translate(224.269106, 230.069358)"><g><path d="M 5.234375 0 L 1.046875 0 L 1.046875 -1.25 L 2.421875 -1.25 L 2.421875 -7.484375 L 1.046875 -7.484375 L 1.046875 -8.734375 L 5.234375 -8.734375 L 5.234375 -7.484375 L 3.8125 -7.484375 L 3.8125 -1.25 L 5.234375 -1.25 Z M 5.234375 0 "/></g></g></g><g fill="#1f2750" fill-opacity="1"><g transform="translate(233.127925, 230.069358)"><g><path d="M 5.921875 0 L 4.3125 0 L 1.71875 -6.34375 L 1.71875 0 L 0.328125 0 L 0.328125 -8.734375 L 2.0625 -8.734375 L 4.53125 -2.71875 L 4.53125 -8.734375 L 5.921875 -8.734375 Z M 5.921875 0 "/></g></g></g><g fill="#1f2750" fill-opacity="1"><g transform="translate(241.986743, 230.069358)"><g/></g></g><g fill="#1f2750" fill-opacity="1"><g transform="translate(250.845555, 230.069358)"><g><path d="M 6.375 -7.484375 L 5.75 -7.484375 L 3.8125 -3.5625 L 3.8125 -1.25 L 5.21875 -1.25 L 5.21875 0 L 1.03125 0 L 1.03125 -1.25 L 2.421875 -1.25 L 2.421875 -3.5625 L 0.5 -7.484375 L -0.140625 -7.484375 L -0.140625 -8.734375 L 2.625 -8.734375 L 2.625 -7.484375 L 2.015625 -7.484375 L 3.125 -4.921875 L 4.234375 -7.484375 L 3.625 -7.484375 L 3.625 -8.734375 L 6.375 -8.734375 Z M 6.375 -7.484375 "/></g></g></g><g fill="#1f2750" fill-opacity="1"><g transform="translate(259.704374, 230.069358)"><g><path d="M -0.21875 -4.375 C -0.21875 -4.957031 -0.15625 -5.519531 -0.03125 -6.0625 C 0.09375 -6.613281 0.285156 -7.09375 0.546875 -7.5 C 0.804688 -7.914062 1.148438 -8.25 1.578125 -8.5 C 2.003906 -8.757812 2.519531 -8.890625 3.125 -8.890625 C 3.726562 -8.890625 4.242188 -8.757812 4.671875 -8.5 C 5.097656 -8.25 5.441406 -7.914062 5.703125 -7.5 C 5.972656 -7.09375 6.171875 -6.613281 6.296875 -6.0625 C 6.421875 -5.519531 6.484375 -4.957031 6.484375 -4.375 C 6.484375 -3.789062 6.421875 -3.226562 6.296875 -2.6875 C 6.171875 -2.144531 5.976562 -1.660156 5.71875 -1.234375 C 5.457031 -0.816406 5.113281 -0.476562 4.6875 -0.21875 C 4.257812 0.03125 3.738281 0.15625 3.125 0.15625 C 2.507812 0.15625 1.988281 0.03125 1.5625 -0.21875 C 1.144531 -0.476562 0.800781 -0.816406 0.53125 -1.234375 C 0.269531 -1.660156 0.0820312 -2.144531 -0.03125 -2.6875 C -0.15625 -3.226562 -0.21875 -3.789062 -0.21875 -4.375 Z M 1.171875 -4.375 C 1.171875 -3.976562 1.195312 -3.582031 1.25 -3.1875 C 1.3125 -2.800781 1.414062 -2.453125 1.5625 -2.140625 C 1.707031 -1.828125 1.90625 -1.570312 2.15625 -1.375 C 2.40625 -1.1875 2.726562 -1.09375 3.125 -1.09375 C 3.519531 -1.09375 3.84375 -1.1875 4.09375 -1.375 C 4.34375 -1.570312 4.539062 -1.828125 4.6875 -2.140625 C 4.832031 -2.453125 4.9375 -2.800781 5 -3.1875 C 5.0625 -3.582031 5.09375 -3.976562 5.09375 -4.375 C 5.09375 -4.769531 5.0625 -5.160156 5 -5.546875 C 4.9375 -5.929688 4.832031 -6.28125 4.6875 -6.59375 C 4.539062 -6.90625 4.335938 -7.15625 4.078125 -7.34375 C 3.828125 -7.539062 3.507812 -7.640625 3.125 -7.640625 C 2.488281 -7.640625 2.003906 -7.351562 1.671875 -6.78125 C 1.335938 -6.207031 1.171875 -5.40625 1.171875 -4.375 Z M 1.171875 -4.375 "/></g></g></g><g fill="#1f2750" fill-opacity="1"><g transform="translate(268.563192, 230.069358)"><g><path d="M 5.921875 -3.109375 C 5.921875 -2.617188 5.863281 -2.171875 5.75 -1.765625 C 5.644531 -1.367188 5.472656 -1.023438 5.234375 -0.734375 C 5.003906 -0.453125 4.710938 -0.234375 4.359375 -0.078125 C 4.015625 0.078125 3.597656 0.15625 3.109375 0.15625 C 2.628906 0.15625 2.210938 0.078125 1.859375 -0.078125 C 1.515625 -0.234375 1.226562 -0.453125 1 -0.734375 C 0.769531 -1.023438 0.597656 -1.375 0.484375 -1.78125 C 0.378906 -2.1875 0.328125 -2.632812 0.328125 -3.125 L 0.328125 -8.734375 L 1.71875 -8.734375 L 1.71875 -3.109375 C 1.71875 -2.890625 1.734375 -2.660156 1.765625 -2.421875 C 1.796875 -2.191406 1.859375 -1.976562 1.953125 -1.78125 C 2.046875 -1.582031 2.1875 -1.414062 2.375 -1.28125 C 2.5625 -1.15625 2.804688 -1.09375 3.109375 -1.09375 C 3.410156 -1.09375 3.65625 -1.15625 3.84375 -1.28125 C 4.03125 -1.414062 4.175781 -1.578125 4.28125 -1.765625 C 4.382812 -1.960938 4.453125 -2.179688 4.484375 -2.421875 C 4.515625 -2.660156 4.53125 -2.890625 4.53125 -3.109375 L 4.53125 -8.734375 L 5.921875 -8.734375 Z M 5.921875 -3.109375 "/></g></g></g><g fill="#1f2750" fill-opacity="1"><g transform="translate(277.422011, 230.069358)"><g><path d="M 6.359375 0 L 4.609375 0 L 2.34375 -3.53125 L 1.71875 -3.53125 L 1.71875 0 L 0.328125 0 L 0.328125 -8.734375 L 3.203125 -8.734375 C 4.171875 -8.734375 4.921875 -8.515625 5.453125 -8.078125 C 5.984375 -7.640625 6.25 -6.988281 6.25 -6.125 C 6.25 -5.738281 6.1875 -5.398438 6.0625 -5.109375 C 5.945312 -4.816406 5.78125 -4.566406 5.5625 -4.359375 C 5.34375 -4.148438 5.085938 -3.984375 4.796875 -3.859375 C 4.515625 -3.734375 4.207031 -3.648438 3.875 -3.609375 Z M 4.859375 -6.15625 C 4.859375 -6.59375 4.710938 -6.921875 4.421875 -7.140625 C 4.128906 -7.367188 3.722656 -7.484375 3.203125 -7.484375 L 1.71875 -7.484375 L 1.71875 -4.796875 L 3.203125 -4.796875 C 3.722656 -4.796875 4.128906 -4.90625 4.421875 -5.125 C 4.710938 -5.34375 4.859375 -5.6875 4.859375 -6.15625 Z M 4.859375 -6.15625 "/></g></g></g><g fill="#1f2750" fill-opacity="1"><g transform="translate(286.280829, 230.069358)"><g/></g></g><g fill="#1f2750" fill-opacity="1"><g transform="translate(295.139648, 230.069358)"><g><path d="M 5.921875 0 L 4.53125 0 L 4.53125 -3.828125 L 1.71875 -3.828125 L 1.71875 0 L 0.328125 0 L 0.328125 -8.734375 L 1.71875 -8.734375 L 1.71875 -5.078125 L 4.53125 -5.078125 L 4.53125 -8.734375 L 5.921875 -8.734375 Z M 5.921875 0 "/></g></g></g><g fill="#1f2750" fill-opacity="1"><g transform="translate(303.998466, 230.069358)"><g><path d="M 5.203125 0 L 4.5625 -2.078125 L 1.671875 -2.078125 L 1.0625 0 L -0.390625 0 L 2.328125 -8.734375 L 3.921875 -8.734375 L 6.65625 0 Z M 2.046875 -3.3125 L 4.203125 -3.3125 L 3.125 -6.90625 Z M 2.046875 -3.3125 "/></g></g></g><g fill="#1f2750" fill-opacity="1"><g transform="translate(312.857284, 230.069358)"><g><path d="M 5.921875 0 L 4.3125 0 L 1.71875 -6.34375 L 1.71875 0 L 0.328125 0 L 0.328125 -8.734375 L 2.0625 -8.734375 L 4.53125 -2.71875 L 4.53125 -8.734375 L 5.921875 -8.734375 Z M 5.921875 0 "/></g></g></g><g fill="#1f2750" fill-opacity="1"><g transform="translate(321.716103, 230.069358)"><g><path d="M 6.53125 -4.375 C 6.53125 -3.789062 6.46875 -3.234375 6.34375 -2.703125 C 6.21875 -2.171875 6.019531 -1.703125 5.75 -1.296875 C 5.488281 -0.898438 5.144531 -0.582031 4.71875 -0.34375 C 4.289062 -0.113281 3.773438 0 3.171875 0 L 0.328125 0 L 0.328125 -8.734375 L 3.171875 -8.734375 C 3.765625 -8.734375 4.273438 -8.613281 4.703125 -8.375 C 5.128906 -8.144531 5.476562 -7.828125 5.75 -7.421875 C 6.019531 -7.023438 6.21875 -6.5625 6.34375 -6.03125 C 6.46875 -5.507812 6.53125 -4.957031 6.53125 -4.375 Z M 5.140625 -4.375 C 5.140625 -5.382812 4.96875 -6.15625 4.625 -6.6875 C 4.28125 -7.21875 3.796875 -7.484375 3.171875 -7.484375 L 1.71875 -7.484375 L 1.71875 -1.25 L 3.171875 -1.25 C 3.796875 -1.25 4.28125 -1.519531 4.625 -2.0625 C 4.96875 -2.601562 5.140625 -3.375 5.140625 -4.375 Z M 5.140625 -4.375 "/></g></g></g><g fill="#1f2750" fill-opacity="1"><g transform="translate(330.574921, 230.069358)"><g><path d="M 6.015625 -2.390625 C 6.015625 -1.992188 5.945312 -1.632812 5.8125 -1.3125 C 5.675781 -1 5.488281 -0.734375 5.25 -0.515625 C 5.019531 -0.296875 4.742188 -0.128906 4.421875 -0.015625 C 4.097656 0.0976562 3.753906 0.15625 3.390625 0.15625 C 2.972656 0.15625 2.597656 0.0820312 2.265625 -0.0625 C 1.941406 -0.207031 1.660156 -0.453125 1.421875 -0.796875 L 1.421875 0 L 0.1875 0 L 0.1875 -2.859375 L 1.421875 -2.859375 C 1.421875 -2.566406 1.472656 -2.3125 1.578125 -2.09375 C 1.679688 -1.875 1.8125 -1.6875 1.96875 -1.53125 C 2.132812 -1.382812 2.328125 -1.269531 2.546875 -1.1875 C 2.765625 -1.113281 3 -1.078125 3.25 -1.078125 C 3.664062 -1.078125 4 -1.171875 4.25 -1.359375 C 4.507812 -1.554688 4.640625 -1.867188 4.640625 -2.296875 C 4.640625 -2.515625 4.597656 -2.703125 4.515625 -2.859375 C 4.441406 -3.015625 4.332031 -3.148438 4.1875 -3.265625 C 4.039062 -3.390625 3.859375 -3.5 3.640625 -3.59375 C 3.429688 -3.6875 3.195312 -3.785156 2.9375 -3.890625 C 2.613281 -3.992188 2.289062 -4.113281 1.96875 -4.25 C 1.65625 -4.382812 1.375 -4.546875 1.125 -4.734375 C 0.875 -4.929688 0.671875 -5.175781 0.515625 -5.46875 C 0.359375 -5.757812 0.28125 -6.125 0.28125 -6.5625 C 0.28125 -6.945312 0.347656 -7.28125 0.484375 -7.5625 C 0.628906 -7.851562 0.816406 -8.097656 1.046875 -8.296875 C 1.285156 -8.492188 1.5625 -8.640625 1.875 -8.734375 C 2.1875 -8.835938 2.515625 -8.890625 2.859375 -8.890625 C 3.265625 -8.890625 3.609375 -8.800781 3.890625 -8.625 C 4.179688 -8.457031 4.40625 -8.234375 4.5625 -7.953125 L 4.5625 -8.734375 L 5.8125 -8.734375 L 5.8125 -6.015625 L 4.5625 -6.015625 C 4.5625 -6.535156 4.425781 -6.9375 4.15625 -7.21875 C 3.894531 -7.507812 3.535156 -7.65625 3.078125 -7.65625 C 2.671875 -7.65625 2.332031 -7.5625 2.0625 -7.375 C 1.800781 -7.1875 1.671875 -6.921875 1.671875 -6.578125 C 1.671875 -6.410156 1.703125 -6.265625 1.765625 -6.140625 C 1.835938 -6.015625 1.941406 -5.898438 2.078125 -5.796875 C 2.210938 -5.703125 2.378906 -5.609375 2.578125 -5.515625 C 2.773438 -5.429688 3.007812 -5.335938 3.28125 -5.234375 C 3.601562 -5.117188 3.925781 -4.988281 4.25 -4.84375 C 4.582031 -4.695312 4.878906 -4.515625 5.140625 -4.296875 C 5.398438 -4.085938 5.609375 -3.828125 5.765625 -3.515625 C 5.929688 -3.210938 6.015625 -2.835938 6.015625 -2.390625 Z M 6.015625 -2.390625 "/></g></g></g></svg>