<svg xmlns="http://www.w3.org/2000/svg" xmlns:xlink="http://www.w3.org/1999/xlink" width="500" zoomAndPan="magnify" viewBox="0 0 375 374.999991" height="500" preserveAspectRatio="xMidYMid meet" version="1.0"><defs><g/><clipPath id="ca8875e6bf"><path d="M 146 44.328125 L 247 44.328125 L 247 48 L 146 48 Z M 146 44.328125 " clip-rule="nonzero"/></clipPath><clipPath id="caf3393826"><path d="M 108 44.328125 L 245 44.328125 L 245 86 L 108 86 Z M 108 44.328125 " clip-rule="nonzero"/></clipPath><clipPath id="19cf6a5808"><path d="M 113 88 L 249.519531 88 L 249.519531 133 L 113 133 Z M 113 88 " clip-rule="nonzero"/></clipPath><clipPath id="56f4eccbf2"><path d="M 221 135 L 249.519531 135 L 249.519531 139 L 221 139 Z M 221 135 " clip-rule="nonzero"/></clipPath><clipPath id="f930da966a"><path d="M 96 135 L 249.519531 135 L 249.519531 174.078125 L 96 174.078125 Z M 96 135 " clip-rule="nonzero"/></clipPath><clipPath id="50202c556a"><path d="M 103 140 L 249.519531 140 L 249.519531 169 L 103 169 Z M 103 140 " clip-rule="nonzero"/></clipPath></defs><path fill="#ffffff" d="M 243.304688 81.097656 C 243.304688 81.097656 243.300781 81.097656 243.292969 81.097656 L 130.289062 81.097656 C 122.4375 81.097656 116.28125 73.976562 116.28125 64.882812 C 116.28125 55.941406 122.566406 48.667969 130.289062 48.667969 L 243.292969 48.667969 C 243.921875 48.667969 244.484375 49.0625 244.695312 49.652344 C 244.90625 50.242188 244.726562 50.898438 244.238281 51.296875 C 244.175781 51.347656 237.628906 56.828125 237.367188 64.480469 C 237.203125 69.257812 239.507812 73.953125 244.214844 78.441406 C 244.566406 78.710938 244.792969 79.136719 244.792969 79.613281 C 244.792969 80.433594 244.128906 81.097656 243.304688 81.097656 Z M 130.289062 51.632812 C 124.207031 51.632812 119.257812 57.578125 119.257812 64.882812 C 119.257812 72.3125 124.105469 78.132812 130.289062 78.132812 L 239.820312 78.132812 C 236.046875 73.746094 234.226562 69.121094 234.394531 64.351562 C 234.597656 58.75 237.507812 54.273438 239.753906 51.632812 Z M 130.289062 51.632812 " fill-opacity="1" fill-rule="nonzero"/><g clip-path="url(#ca8875e6bf)"><path fill="#ffffff" d="M 245.097656 47.3125 L 147.722656 47.3125 C 146.902344 47.3125 146.234375 46.648438 146.234375 45.828125 C 146.234375 45.011719 146.902344 44.347656 147.722656 44.347656 L 245.097656 44.347656 C 245.917969 44.347656 246.582031 45.011719 246.582031 45.828125 C 246.582031 46.648438 245.917969 47.3125 245.097656 47.3125 Z M 245.097656 47.3125 " fill-opacity="1" fill-rule="nonzero"/></g><g clip-path="url(#caf3393826)"><path fill="#ffffff" d="M 243.269531 85.417969 L 127.953125 85.417969 C 117.316406 85.417969 108.988281 76.398438 108.988281 64.882812 C 108.988281 53.558594 117.496094 44.347656 127.953125 44.347656 L 135.921875 44.347656 C 136.742188 44.347656 137.40625 45.011719 137.40625 45.828125 C 137.40625 46.648438 136.742188 47.308594 135.921875 47.308594 L 127.953125 47.308594 C 119.136719 47.308594 111.960938 55.191406 111.960938 64.882812 C 111.960938 74.738281 118.984375 82.453125 127.953125 82.453125 L 243.269531 82.453125 C 244.089844 82.453125 244.757812 83.117188 244.757812 83.9375 C 244.757812 84.753906 244.089844 85.417969 243.269531 85.417969 Z M 243.269531 85.417969 " fill-opacity="1" fill-rule="nonzero"/></g><path fill="#ffffff" d="M 133.09375 91.625 L 112.992188 91.625 C 112.171875 91.625 111.507812 90.964844 111.507812 90.144531 C 111.507812 89.324219 112.171875 88.664062 112.992188 88.664062 L 133.09375 88.664062 C 133.914062 88.664062 134.582031 89.324219 134.582031 90.144531 C 134.582031 90.964844 133.914062 91.625 133.09375 91.625 Z M 133.09375 91.625 " fill-opacity="1" fill-rule="nonzero"/><g clip-path="url(#19cf6a5808)"><path fill="#ffffff" d="M 230.136719 132.09375 L 114.820312 132.09375 C 114 132.09375 113.332031 131.429688 113.332031 130.609375 C 113.332031 129.792969 114 129.128906 114.820312 129.128906 L 230.136719 129.128906 C 239.101562 129.128906 246.128906 120.890625 246.128906 110.378906 C 246.128906 100.039062 238.953125 91.625 230.136719 91.625 L 149.011719 91.625 C 148.191406 91.625 147.523438 90.964844 147.523438 90.144531 C 147.523438 89.324219 148.191406 88.664062 149.011719 88.664062 L 230.136719 88.664062 C 240.59375 88.664062 249.105469 98.40625 249.105469 110.378906 C 249.105469 122.554688 240.773438 132.09375 230.136719 132.09375 Z M 230.136719 132.09375 " fill-opacity="1" fill-rule="nonzero"/></g><path fill="#ffffff" d="M 228.074219 127.777344 L 115.863281 127.777344 C 115.265625 127.777344 114.726562 127.421875 114.492188 126.875 C 114.257812 126.328125 114.378906 125.695312 114.792969 125.265625 C 119.589844 120.332031 121.921875 115.148438 121.734375 109.859375 C 121.429688 101.503906 114.933594 95.621094 114.871094 95.5625 C 114.410156 95.152344 114.25 94.503906 114.472656 93.929688 C 114.691406 93.355469 115.246094 92.976562 115.863281 92.976562 L 228.074219 92.976562 C 235.75 92.976562 241.992188 100.78125 241.992188 110.378906 C 241.992188 120.136719 235.878906 127.777344 228.074219 127.777344 Z M 119.160156 124.816406 L 228.074219 124.816406 C 234.210938 124.816406 239.019531 118.472656 239.019531 110.378906 C 239.019531 102.417969 234.109375 95.941406 228.074219 95.941406 L 119.230469 95.941406 C 121.460938 98.734375 124.484375 103.613281 124.707031 109.75 C 124.894531 114.960938 123.03125 120.015625 119.160156 124.816406 Z M 119.160156 124.816406 " fill-opacity="1" fill-rule="nonzero"/><g clip-path="url(#56f4eccbf2)"><path fill="#ffffff" d="M 247.617188 138.46875 L 222.503906 138.46875 C 221.683594 138.46875 221.015625 137.804688 221.015625 136.988281 C 221.015625 136.167969 221.683594 135.503906 222.503906 135.503906 L 247.617188 135.503906 C 248.4375 135.503906 249.105469 136.167969 249.105469 136.988281 C 249.105469 137.804688 248.4375 138.46875 247.617188 138.46875 Z M 247.617188 138.46875 " fill-opacity="1" fill-rule="nonzero"/></g><g clip-path="url(#f930da966a)"><path fill="#ffffff" d="M 247.617188 174.117188 L 114.582031 174.117188 C 104.164062 174.117188 96.003906 165.636719 96.003906 154.808594 C 96.003906 144.164062 104.339844 135.503906 114.582031 135.503906 L 209.710938 135.503906 C 210.53125 135.503906 211.199219 136.167969 211.199219 136.988281 C 211.199219 137.804688 210.53125 138.46875 209.710938 138.46875 L 114.582031 138.46875 C 105.980469 138.46875 98.980469 145.800781 98.980469 154.808594 C 98.980469 163.972656 105.832031 171.152344 114.582031 171.152344 L 247.617188 171.152344 C 248.4375 171.152344 249.105469 171.816406 249.105469 172.632812 C 249.105469 173.453125 248.4375 174.117188 247.617188 174.117188 Z M 247.617188 174.117188 " fill-opacity="1" fill-rule="nonzero"/></g><g clip-path="url(#50202c556a)"><path fill="#ffffff" d="M 247.628906 168.714844 C 247.625 168.714844 247.621094 168.714844 247.617188 168.714844 L 116.902344 168.714844 C 109.238281 168.714844 103.234375 162.605469 103.234375 154.808594 C 103.234375 147.144531 109.363281 140.90625 116.902344 140.90625 L 247.617188 140.90625 C 248.261719 140.90625 248.835938 141.324219 249.03125 141.9375 C 249.230469 142.550781 249.007812 143.222656 248.480469 143.59375 C 248.417969 143.640625 242.097656 148.226562 241.886719 154.546875 C 241.757812 158.4375 243.964844 162.289062 248.453125 166 C 248.851562 166.265625 249.113281 166.71875 249.113281 167.230469 C 249.117188 168.050781 248.449219 168.714844 247.628906 168.714844 Z M 116.902344 143.871094 C 111.003906 143.871094 106.207031 148.777344 106.207031 154.808594 C 106.207031 160.945312 110.90625 165.75 116.902344 165.75 L 243.832031 165.75 C 240.429688 162.152344 238.777344 158.355469 238.914062 154.429688 C 239.074219 149.871094 241.625 146.1875 243.773438 143.871094 Z M 116.902344 143.871094 " fill-opacity="1" fill-rule="nonzero"/></g><g fill="#ffffff" fill-opacity="1"><g transform="translate(88.262048, 220.216715)"><g><path d="M 23.890625 -8.75 L 23.890625 0 L 1.578125 0 L 1.578125 -1.546875 L 3.734375 -1.578125 L 3.734375 -27.890625 L 1.578125 -27.9375 L 1.578125 -29.484375 L 23.015625 -29.484375 L 23.015625 -20.9375 L 21.296875 -20.984375 L 21.203125 -23.1875 C 17.953125 -25.207031 14.566406 -26.910156 11.046875 -28.296875 L 11.125 -16.0625 L 19.359375 -16.0625 L 19.359375 -14.4375 L 11.125 -14.4375 L 11.21875 -1.234375 C 14.976562 -2.671875 18.601562 -4.429688 22.09375 -6.515625 L 22.171875 -8.71875 Z M 23.890625 -8.75 "/></g></g></g><g fill="#ffffff" fill-opacity="1"><g transform="translate(113.254885, 220.216715)"><g><path d="M 1.3125 -12.28125 L 15.09375 -12.625 L 14.65625 -10.609375 L 1.09375 -10.609375 Z M 1.3125 -12.28125 "/></g></g></g><g fill="#ffffff" fill-opacity="1"><g transform="translate(129.755437, 220.216715)"><g><path d="M 20.109375 -15.265625 C 21.660156 -15.265625 22.984375 -14.945312 24.078125 -14.3125 C 25.179688 -13.6875 26.007812 -12.875 26.5625 -11.875 C 27.125 -10.882812 27.40625 -9.832031 27.40625 -8.71875 C 27.40625 -5.988281 26.238281 -3.851562 23.90625 -2.3125 C 21.582031 -0.769531 18.175781 0 13.6875 0 L 1.578125 0 L 1.578125 -1.546875 L 3.734375 -1.578125 L 3.734375 -27.890625 L 1.578125 -27.9375 L 1.578125 -29.484375 L 10.078125 -29.390625 L 16.5 -29.921875 C 19.3125 -29.921875 21.46875 -29.3125 22.96875 -28.09375 C 24.46875 -26.875 25.21875 -25.269531 25.21875 -23.28125 C 25.21875 -21.394531 24.582031 -19.769531 23.3125 -18.40625 C 22.050781 -17.050781 20.207031 -15.960938 17.78125 -15.140625 Z M 17.375 -21.609375 C 17.375 -23.691406 16.835938 -25.265625 15.765625 -26.328125 C 14.703125 -27.398438 13.128906 -27.9375 11.046875 -27.9375 L 11.046875 -15.265625 C 13.179688 -15.410156 14.769531 -16.003906 15.8125 -17.046875 C 16.851562 -18.085938 17.375 -19.609375 17.375 -21.609375 Z M 11.046875 -1.546875 C 14.035156 -1.546875 16.203125 -2.015625 17.546875 -2.953125 C 18.898438 -3.890625 19.578125 -5.382812 19.578125 -7.4375 C 19.578125 -9.488281 18.96875 -11.039062 17.75 -12.09375 C 16.53125 -13.15625 14.734375 -13.6875 12.359375 -13.6875 L 11.046875 -13.6875 Z M 11.046875 -1.546875 "/></g></g></g><g fill="#ffffff" fill-opacity="1"><g transform="translate(157.696364, 220.216715)"><g><path d="M 15.796875 -30.140625 C 18.671875 -30.140625 21.1875 -29.582031 23.34375 -28.46875 C 25.5 -27.351562 27.171875 -25.707031 28.359375 -23.53125 C 29.546875 -21.363281 30.140625 -18.710938 30.140625 -15.578125 C 30.140625 -13.578125 29.785156 -11.515625 29.078125 -9.390625 C 28.378906 -7.265625 27.351562 -5.378906 26 -3.734375 C 24.59375 -2.421875 22.976562 -1.359375 21.15625 -0.546875 C 19.34375 0.253906 17.410156 0.65625 15.359375 0.65625 C 12.515625 0.65625 10.015625 0.0976562 7.859375 -1.015625 C 5.703125 -2.128906 4.03125 -3.769531 2.84375 -5.9375 C 1.65625 -8.113281 1.0625 -10.769531 1.0625 -13.90625 C 1.0625 -15.875 1.425781 -17.925781 2.15625 -20.0625 C 2.882812 -22.207031 3.925781 -24.097656 5.28125 -25.734375 C 6.65625 -27.054688 8.242188 -28.117188 10.046875 -28.921875 C 11.859375 -29.734375 13.773438 -30.140625 15.796875 -30.140625 Z M 8.890625 -16.984375 C 8.890625 -13.578125 9.328125 -10.832031 10.203125 -8.75 C 11.085938 -6.664062 12.421875 -5.132812 14.203125 -4.15625 C 15.992188 -3.175781 18.3125 -2.613281 21.15625 -2.46875 C 21.507812 -3.925781 21.796875 -5.644531 22.015625 -7.625 C 22.242188 -9.613281 22.359375 -11.238281 22.359375 -12.5 C 22.359375 -15.925781 21.910156 -18.6875 21.015625 -20.78125 C 20.117188 -22.882812 18.757812 -24.429688 16.9375 -25.421875 C 15.125 -26.421875 12.804688 -26.984375 9.984375 -27.109375 C 9.660156 -25.578125 9.394531 -23.800781 9.1875 -21.78125 C 8.988281 -19.757812 8.890625 -18.160156 8.890625 -16.984375 Z M 8.890625 -16.984375 "/></g></g></g><g fill="#ffffff" fill-opacity="1"><g transform="translate(188.893411, 220.216715)"><g><path d="M 15.796875 -30.140625 C 18.671875 -30.140625 21.1875 -29.582031 23.34375 -28.46875 C 25.5 -27.351562 27.171875 -25.707031 28.359375 -23.53125 C 29.546875 -21.363281 30.140625 -18.710938 30.140625 -15.578125 C 30.140625 -13.578125 29.785156 -11.515625 29.078125 -9.390625 C 28.378906 -7.265625 27.351562 -5.378906 26 -3.734375 C 24.59375 -2.421875 22.976562 -1.359375 21.15625 -0.546875 C 19.34375 0.253906 17.410156 0.65625 15.359375 0.65625 C 12.515625 0.65625 10.015625 0.0976562 7.859375 -1.015625 C 5.703125 -2.128906 4.03125 -3.769531 2.84375 -5.9375 C 1.65625 -8.113281 1.0625 -10.769531 1.0625 -13.90625 C 1.0625 -15.875 1.425781 -17.925781 2.15625 -20.0625 C 2.882812 -22.207031 3.925781 -24.097656 5.28125 -25.734375 C 6.65625 -27.054688 8.242188 -28.117188 10.046875 -28.921875 C 11.859375 -29.734375 13.773438 -30.140625 15.796875 -30.140625 Z M 8.890625 -16.984375 C 8.890625 -13.578125 9.328125 -10.832031 10.203125 -8.75 C 11.085938 -6.664062 12.421875 -5.132812 14.203125 -4.15625 C 15.992188 -3.175781 18.3125 -2.613281 21.15625 -2.46875 C 21.507812 -3.925781 21.796875 -5.644531 22.015625 -7.625 C 22.242188 -9.613281 22.359375 -11.238281 22.359375 -12.5 C 22.359375 -15.925781 21.910156 -18.6875 21.015625 -20.78125 C 20.117188 -22.882812 18.757812 -24.429688 16.9375 -25.421875 C 15.125 -26.421875 12.804688 -26.984375 9.984375 -27.109375 C 9.660156 -25.578125 9.394531 -23.800781 9.1875 -21.78125 C 8.988281 -19.757812 8.890625 -18.160156 8.890625 -16.984375 Z M 8.890625 -16.984375 "/></g></g></g><g fill="#ffffff" fill-opacity="1"><g transform="translate(220.090458, 220.216715)"><g><path d="M 11.046875 -1.578125 L 13.203125 -1.546875 L 13.203125 0 L 1.578125 0 L 1.578125 -1.546875 L 3.734375 -1.578125 L 3.734375 -27.890625 L 1.578125 -27.9375 L 1.578125 -29.484375 L 13.203125 -29.484375 L 13.203125 -27.9375 L 11.046875 -27.890625 Z M 30.71875 -1.546875 L 30.71875 0 L 17.03125 0 L 17.03125 -1.546875 L 19.1875 -1.578125 L 11.703125 -14.46875 L 21.25 -27.890625 L 19.09375 -27.9375 L 19.09375 -29.484375 L 29.5625 -29.484375 L 29.5625 -27.9375 L 27.1875 -27.890625 L 17.421875 -18.4375 L 28.5625 -1.578125 Z M 30.71875 -1.546875 "/></g></g></g><g fill="#ffffff" fill-opacity="1"><g transform="translate(250.891481, 220.216715)"><g><path d="M 9.546875 -24.8125 C 9.546875 -23.875 9.804688 -23.007812 10.328125 -22.21875 C 10.859375 -21.425781 11.519531 -20.722656 12.3125 -20.109375 C 13.113281 -19.492188 14.203125 -18.726562 15.578125 -17.8125 C 17.191406 -16.757812 18.484375 -15.828125 19.453125 -15.015625 C 20.421875 -14.210938 21.25 -13.242188 21.9375 -12.109375 C 22.625 -10.984375 22.96875 -9.71875 22.96875 -8.3125 C 22.96875 -6.757812 22.539062 -5.300781 21.6875 -3.9375 C 20.84375 -2.570312 19.566406 -1.460938 17.859375 -0.609375 C 16.160156 0.234375 14.109375 0.65625 11.703125 0.65625 C 6.535156 0.65625 2.867188 -1.394531 0.703125 -5.5 L 5.671875 -9.328125 C 7.078125 -6.421875 8.660156 -3.601562 10.421875 -0.875 L 10.46875 -0.875 C 11.320312 -0.875 12.113281 -1.101562 12.84375 -1.5625 C 13.582031 -2.019531 14.171875 -2.613281 14.609375 -3.34375 C 15.046875 -4.070312 15.265625 -4.847656 15.265625 -5.671875 C 15.265625 -6.554688 15.007812 -7.367188 14.5 -8.109375 C 13.988281 -8.859375 13.347656 -9.519531 12.578125 -10.09375 C 11.816406 -10.664062 10.773438 -11.363281 9.453125 -12.1875 C 7.867188 -13.1875 6.59375 -14.066406 5.625 -14.828125 C 4.664062 -15.585938 3.835938 -16.515625 3.140625 -17.609375 C 2.453125 -18.710938 2.109375 -19.984375 2.109375 -21.421875 C 2.109375 -23.035156 2.570312 -24.507812 3.5 -25.84375 C 4.425781 -27.1875 5.742188 -28.238281 7.453125 -29 C 9.171875 -29.757812 11.191406 -30.140625 13.515625 -30.140625 C 15.765625 -30.140625 17.613281 -29.78125 19.0625 -29.0625 C 20.519531 -28.34375 21.835938 -27.320312 23.015625 -26 L 18.390625 -21.34375 C 16.835938 -23.925781 15.269531 -26.34375 13.6875 -28.59375 C 12.363281 -28.59375 11.34375 -28.234375 10.625 -27.515625 C 9.90625 -26.796875 9.546875 -25.894531 9.546875 -24.8125 Z M 9.546875 -24.8125 "/></g></g></g><g fill="#ffffff" fill-opacity="1"><g transform="translate(88.262048, 279.808486)"><g><path d="M 10.625 -7.984375 C 11.769531 -8.667969 12.515625 -10.074219 12.515625 -11.460938 C 12.515625 -13.703125 10.691406 -15.398438 8.183594 -15.398438 L 2.089844 -15.398438 L 2.089844 0 L 8.25 0 C 10.910156 0 12.914062 -1.847656 12.914062 -4.222656 C 12.914062 -5.917969 12.054688 -7.371094 10.625 -7.984375 Z M 10.535156 -11.195312 C 10.535156 -9.921875 9.523438 -8.886719 8.140625 -8.886719 L 4.003906 -8.886719 L 4.003906 -13.507812 L 8.140625 -13.507812 C 9.480469 -13.507812 10.535156 -12.496094 10.535156 -11.195312 Z M 8.226562 -1.890625 L 4.003906 -1.890625 L 4.003906 -6.996094 L 8.25 -6.996094 C 9.765625 -6.996094 10.933594 -5.894531 10.933594 -4.445312 C 10.933594 -2.96875 9.765625 -1.890625 8.226562 -1.890625 Z M 8.226562 -1.890625 "/></g></g></g><g fill="#ffffff" fill-opacity="1"><g transform="translate(110.369507, 279.808486)"><g><path d="M 9.105469 0.265625 C 13.769531 0.265625 17.15625 -3.144531 17.15625 -7.675781 C 17.15625 -12.230469 13.769531 -15.640625 9.105469 -15.640625 C 4.445312 -15.640625 1.035156 -12.230469 1.035156 -7.675781 C 1.035156 -3.144531 4.445312 0.265625 9.105469 0.265625 Z M 9.105469 -1.628906 C 5.609375 -1.628906 3.011719 -4.246094 3.011719 -7.675781 C 3.011719 -11.128906 5.609375 -13.75 9.105469 -13.75 C 12.605469 -13.75 15.199219 -11.152344 15.199219 -7.675781 C 15.199219 -4.222656 12.605469 -1.628906 9.105469 -1.628906 Z M 9.105469 -1.628906 "/></g></g></g><g fill="#ffffff" fill-opacity="1"><g transform="translate(136.52425, 279.808486)"><g><path d="M 9.105469 0.265625 C 13.769531 0.265625 17.15625 -3.144531 17.15625 -7.675781 C 17.15625 -12.230469 13.769531 -15.640625 9.105469 -15.640625 C 4.445312 -15.640625 1.035156 -12.230469 1.035156 -7.675781 C 1.035156 -3.144531 4.445312 0.265625 9.105469 0.265625 Z M 9.105469 -1.628906 C 5.609375 -1.628906 3.011719 -4.246094 3.011719 -7.675781 C 3.011719 -11.128906 5.609375 -13.75 9.105469 -13.75 C 12.605469 -13.75 15.199219 -11.152344 15.199219 -7.675781 C 15.199219 -4.222656 12.605469 -1.628906 9.105469 -1.628906 Z M 9.105469 -1.628906 "/></g></g></g><g fill="#ffffff" fill-opacity="1"><g transform="translate(162.678993, 279.808486)"><g><path d="M 11.484375 0 L 13.96875 0 L 7.832031 -7.984375 L 13.460938 -15.398438 L 11 -15.398438 L 6.070312 -8.84375 L 4.027344 -8.84375 L 4.027344 -15.398438 L 2.089844 -15.398438 L 2.089844 0 L 4.027344 0 L 4.027344 -7.039062 L 6.070312 -7.039062 Z M 11.484375 0 "/></g></g></g><g fill="#ffffff" fill-opacity="1"><g transform="translate(184.566498, 279.808486)"><g/></g></g><g fill="#ffffff" fill-opacity="1"><g transform="translate(198.249454, 279.808486)"><g><path d="M 6.6875 0.199219 C 9.746094 0.199219 12.121094 -1.453125 12.121094 -4.355469 C 12.121094 -7.566406 9.394531 -8.203125 6.972656 -8.800781 C 4.992188 -9.261719 3.210938 -9.699219 3.210938 -11.371094 C 3.210938 -12.847656 4.621094 -13.726562 6.488281 -13.726562 C 8.359375 -13.726562 9.765625 -12.738281 9.765625 -11.019531 L 11.679688 -11.019531 C 11.679688 -13.8125 9.722656 -15.574219 6.535156 -15.574219 C 3.34375 -15.574219 1.296875 -13.96875 1.296875 -11.308594 C 1.296875 -8.226562 3.914062 -7.589844 6.292969 -7.039062 C 8.292969 -6.554688 10.117188 -6.136719 10.117188 -4.332031 C 10.117188 -2.707031 8.601562 -1.695312 6.664062 -1.695312 C 4.53125 -1.695312 2.96875 -2.816406 2.96875 -4.730469 L 0.988281 -4.730469 C 0.988281 -1.695312 3.300781 0.199219 6.6875 0.199219 Z M 6.6875 0.199219 "/></g></g></g><g fill="#ffffff" fill-opacity="1"><g transform="translate(219.3011, 279.808486)"><g><path d="M 11.988281 -15.398438 L 11.988281 -8.84375 L 4.027344 -8.84375 L 4.027344 -15.398438 L 2.089844 -15.398438 L 2.089844 0 L 4.027344 0 L 4.027344 -6.996094 L 11.988281 -6.996094 L 11.988281 0 L 13.925781 0 L 13.925781 -15.398438 Z M 11.988281 -15.398438 "/></g></g></g><g fill="#ffffff" fill-opacity="1"><g transform="translate(243.256226, 279.808486)"><g><path d="M 9.105469 0.265625 C 13.769531 0.265625 17.15625 -3.144531 17.15625 -7.675781 C 17.15625 -12.230469 13.769531 -15.640625 9.105469 -15.640625 C 4.445312 -15.640625 1.035156 -12.230469 1.035156 -7.675781 C 1.035156 -3.144531 4.445312 0.265625 9.105469 0.265625 Z M 9.105469 -1.628906 C 5.609375 -1.628906 3.011719 -4.246094 3.011719 -7.675781 C 3.011719 -11.128906 5.609375 -13.75 9.105469 -13.75 C 12.605469 -13.75 15.199219 -11.152344 15.199219 -7.675781 C 15.199219 -4.222656 12.605469 -1.628906 9.105469 -1.628906 Z M 9.105469 -1.628906 "/></g></g></g><g fill="#ffffff" fill-opacity="1"><g transform="translate(269.410975, 279.808486)"><g><path d="M 7.609375 -15.398438 L 2.089844 -15.398438 L 2.089844 0 L 4.027344 0 L 4.027344 -5.519531 L 7.609375 -5.519531 C 10.535156 -5.519531 12.714844 -7.632812 12.714844 -10.449219 C 12.714844 -13.285156 10.515625 -15.398438 7.609375 -15.398438 Z M 7.523438 -7.390625 L 4.027344 -7.390625 L 4.027344 -13.527344 L 7.523438 -13.527344 C 9.394531 -13.527344 10.757812 -12.207031 10.757812 -10.449219 C 10.757812 -8.6875 9.394531 -7.390625 7.523438 -7.390625 Z M 7.523438 -7.390625 "/></g></g></g><path stroke-linecap="butt" transform="matrix(0.75, -0.000000000000000107, 0.000000000000000107, 0.75, 37.500002, 245.46889)" fill="none" stroke-linejoin="miter" d="M -0.00000271667 0.499813 L 400.000024 0.499813 " stroke="#ffffff" stroke-width="1" stroke-opacity="1" stroke-miterlimit="4"/></svg>