<svg xmlns="http://www.w3.org/2000/svg" xmlns:xlink="http://www.w3.org/1999/xlink" width="500" zoomAndPan="magnify" viewBox="0 0 375 374.999991" height="500" preserveAspectRatio="xMidYMid meet" version="1.0"><defs><g/><clipPath id="b0aac2e797"><path d="M 43 111.339844 L 130 111.339844 L 130 114 L 43 114 Z M 43 111.339844 " clip-rule="nonzero"/></clipPath><clipPath id="483286f48f"><path d="M 11 111.339844 L 128 111.339844 L 128 147 L 11 147 Z M 11 111.339844 " clip-rule="nonzero"/></clipPath><clipPath id="dacbdd1dce"><path d="M 15 149 L 131.792969 149 L 131.792969 187 L 15 187 Z M 15 149 " clip-rule="nonzero"/></clipPath><clipPath id="4b55d2f22e"><path d="M 107 189 L 131.792969 189 L 131.792969 193 L 107 193 Z M 107 189 " clip-rule="nonzero"/></clipPath><clipPath id="7cb5b6a162"><path d="M 0.542969 189 L 131.792969 189 L 131.792969 223.089844 L 0.542969 223.089844 Z M 0.542969 189 " clip-rule="nonzero"/></clipPath><clipPath id="ca02181d28"><path d="M 6 194 L 131.792969 194 L 131.792969 219 L 6 219 Z M 6 194 " clip-rule="nonzero"/></clipPath></defs><path fill="#ffffff" d="M 126.492188 143.011719 C 126.488281 143.011719 126.484375 143.011719 126.480469 143.011719 L 30.011719 143.011719 C 23.304688 143.011719 18.054688 136.875 18.054688 129.046875 C 18.054688 121.347656 23.417969 115.082031 30.011719 115.082031 L 126.480469 115.082031 C 127.015625 115.082031 127.496094 115.417969 127.675781 115.925781 C 127.855469 116.433594 127.703125 117 127.289062 117.34375 C 127.234375 117.390625 121.644531 122.109375 121.421875 128.699219 C 121.28125 132.8125 123.25 136.859375 127.265625 140.722656 C 127.566406 140.957031 127.761719 141.324219 127.761719 141.734375 C 127.761719 142.4375 127.191406 143.011719 126.492188 143.011719 Z M 30.011719 117.632812 C 24.816406 117.632812 20.59375 122.753906 20.59375 129.046875 C 20.59375 135.445312 24.730469 140.457031 30.011719 140.457031 L 123.515625 140.457031 C 120.292969 136.679688 118.738281 132.695312 118.882812 128.585938 C 119.054688 123.765625 121.542969 119.910156 123.460938 117.632812 Z M 30.011719 117.632812 " fill-opacity="1" fill-rule="nonzero"/><g clip-path="url(#b0aac2e797)"><path fill="#ffffff" d="M 128.019531 113.910156 L 44.894531 113.910156 C 44.191406 113.910156 43.621094 113.339844 43.621094 112.636719 C 43.621094 111.929688 44.191406 111.359375 44.894531 111.359375 L 128.019531 111.359375 C 128.71875 111.359375 129.289062 111.929688 129.289062 112.636719 C 129.289062 113.339844 128.71875 113.910156 128.019531 113.910156 Z M 128.019531 113.910156 " fill-opacity="1" fill-rule="nonzero"/></g><g clip-path="url(#483286f48f)"><path fill="#ffffff" d="M 126.460938 146.730469 L 28.015625 146.730469 C 18.9375 146.730469 11.824219 138.964844 11.824219 129.046875 C 11.824219 119.292969 19.085938 111.359375 28.015625 111.359375 L 34.816406 111.359375 C 35.519531 111.359375 36.085938 111.929688 36.085938 112.632812 C 36.085938 113.339844 35.519531 113.910156 34.816406 113.910156 L 28.015625 113.910156 C 20.488281 113.910156 14.363281 120.699219 14.363281 129.046875 C 14.363281 137.53125 20.359375 144.179688 28.015625 144.179688 L 126.460938 144.179688 C 127.160156 144.179688 127.730469 144.75 127.730469 145.457031 C 127.730469 146.160156 127.160156 146.730469 126.460938 146.730469 Z M 126.460938 146.730469 " fill-opacity="1" fill-rule="nonzero"/></g><path fill="#ffffff" d="M 32.40625 152.078125 L 15.246094 152.078125 C 14.542969 152.078125 13.976562 151.507812 13.976562 150.800781 C 13.976562 150.097656 14.542969 149.527344 15.246094 149.527344 L 32.40625 149.527344 C 33.105469 149.527344 33.675781 150.097656 33.675781 150.800781 C 33.675781 151.507812 33.105469 152.078125 32.40625 152.078125 Z M 32.40625 152.078125 " fill-opacity="1" fill-rule="nonzero"/><g clip-path="url(#dacbdd1dce)"><path fill="#ffffff" d="M 115.246094 186.929688 L 16.804688 186.929688 C 16.101562 186.929688 15.535156 186.359375 15.535156 185.65625 C 15.535156 184.949219 16.101562 184.378906 16.804688 184.378906 L 115.246094 184.378906 C 122.902344 184.378906 128.898438 177.285156 128.898438 168.230469 C 128.898438 159.324219 122.773438 152.078125 115.246094 152.078125 L 45.992188 152.078125 C 45.292969 152.078125 44.722656 151.507812 44.722656 150.800781 C 44.722656 150.097656 45.292969 149.527344 45.992188 149.527344 L 115.246094 149.527344 C 124.175781 149.527344 131.441406 157.917969 131.441406 168.230469 C 131.441406 178.714844 124.328125 186.929688 115.246094 186.929688 Z M 115.246094 186.929688 " fill-opacity="1" fill-rule="nonzero"/></g><path fill="#ffffff" d="M 113.488281 183.214844 L 17.691406 183.214844 C 17.183594 183.214844 16.722656 182.910156 16.523438 182.4375 C 16.324219 181.964844 16.425781 181.421875 16.78125 181.050781 C 20.875 176.800781 22.867188 172.335938 22.707031 167.78125 C 22.449219 160.585938 16.902344 155.519531 16.847656 155.46875 C 16.453125 155.117188 16.320312 154.558594 16.507812 154.0625 C 16.695312 153.566406 17.167969 153.242188 17.691406 153.242188 L 113.488281 153.242188 C 120.039062 153.242188 125.371094 159.964844 125.371094 168.230469 C 125.371094 176.632812 120.152344 183.214844 113.488281 183.214844 Z M 20.511719 180.664062 L 113.488281 180.664062 C 118.726562 180.664062 122.832031 175.203125 122.832031 168.230469 C 122.832031 161.371094 118.640625 155.792969 113.488281 155.792969 L 20.570312 155.792969 C 22.476562 158.199219 25.054688 162.402344 25.242188 167.691406 C 25.40625 172.175781 23.8125 176.527344 20.511719 180.664062 Z M 20.511719 180.664062 " fill-opacity="1" fill-rule="nonzero"/><g clip-path="url(#4b55d2f22e)"><path fill="#ffffff" d="M 130.167969 192.421875 L 108.734375 192.421875 C 108.03125 192.421875 107.460938 191.851562 107.460938 191.144531 C 107.460938 190.441406 108.03125 189.871094 108.734375 189.871094 L 130.167969 189.871094 C 130.871094 189.871094 131.441406 190.441406 131.441406 191.144531 C 131.441406 191.851562 130.871094 192.421875 130.167969 192.421875 Z M 130.167969 192.421875 " fill-opacity="1" fill-rule="nonzero"/></g><g clip-path="url(#7cb5b6a162)"><path fill="#ffffff" d="M 130.167969 223.125 L 16.601562 223.125 C 7.707031 223.125 0.742188 215.820312 0.742188 206.496094 C 0.742188 197.328125 7.855469 189.871094 16.601562 189.871094 L 97.8125 189.871094 C 98.511719 189.871094 99.082031 190.441406 99.082031 191.144531 C 99.082031 191.851562 98.511719 192.421875 97.8125 192.421875 L 16.601562 192.421875 C 9.257812 192.421875 3.28125 198.738281 3.28125 206.496094 C 3.28125 214.390625 9.132812 220.570312 16.601562 220.570312 L 130.171875 220.570312 C 130.871094 220.570312 131.441406 221.144531 131.441406 221.847656 C 131.441406 222.554688 130.871094 223.125 130.167969 223.125 Z M 130.167969 223.125 " fill-opacity="1" fill-rule="nonzero"/></g><g clip-path="url(#ca02181d28)"><path fill="#ffffff" d="M 130.179688 218.472656 C 130.179688 218.472656 130.175781 218.472656 130.167969 218.472656 L 18.582031 218.472656 C 12.039062 218.472656 6.914062 213.210938 6.914062 206.496094 C 6.914062 199.894531 12.148438 194.523438 18.582031 194.523438 L 130.167969 194.523438 C 130.722656 194.523438 131.210938 194.882812 131.378906 195.410156 C 131.546875 195.9375 131.355469 196.515625 130.90625 196.839844 C 130.855469 196.875 125.457031 200.828125 125.277344 206.273438 C 125.167969 209.621094 127.054688 212.941406 130.886719 216.132812 C 131.226562 216.363281 131.449219 216.753906 131.449219 217.195312 C 131.449219 217.902344 130.882812 218.472656 130.179688 218.472656 Z M 18.582031 197.074219 C 13.546875 197.074219 9.453125 201.300781 9.453125 206.496094 C 9.453125 211.78125 13.460938 215.917969 18.582031 215.917969 L 126.9375 215.917969 C 124.035156 212.820312 122.625 209.550781 122.742188 206.167969 C 122.878906 202.242188 125.054688 199.070312 126.890625 197.074219 Z M 18.582031 197.074219 " fill-opacity="1" fill-rule="nonzero"/></g><g fill="#ffffff" fill-opacity="1"><g transform="translate(132.057344, 159.306665)"><g><path d="M 29.34375 -10.75 L 29.34375 0 L 1.953125 0 L 1.953125 -1.890625 L 4.59375 -1.953125 L 4.59375 -34.265625 L 1.953125 -34.3125 L 1.953125 -36.21875 L 28.265625 -36.21875 L 28.265625 -25.71875 L 26.15625 -25.78125 L 26.046875 -28.484375 C 22.046875 -30.972656 17.882812 -33.0625 13.5625 -34.75 L 13.671875 -19.734375 L 23.78125 -19.734375 L 23.78125 -17.734375 L 13.671875 -17.734375 L 13.78125 -1.515625 C 18.394531 -3.273438 22.84375 -5.4375 27.125 -8 L 27.234375 -10.703125 Z M 29.34375 -10.75 "/></g></g></g><g fill="#ffffff" fill-opacity="1"><g transform="translate(162.752385, 159.306665)"><g><path d="M 1.625 -15.078125 L 18.53125 -15.515625 L 18 -13.03125 L 1.34375 -13.03125 Z M 1.625 -15.078125 "/></g></g></g><g fill="#ffffff" fill-opacity="1"><g transform="translate(183.017597, 159.306665)"><g><path d="M 24.703125 -18.75 C 26.609375 -18.75 28.238281 -18.363281 29.59375 -17.59375 C 30.945312 -16.820312 31.960938 -15.820312 32.640625 -14.59375 C 33.328125 -13.363281 33.671875 -12.066406 33.671875 -10.703125 C 33.671875 -7.347656 32.238281 -4.722656 29.375 -2.828125 C 26.507812 -0.941406 22.320312 0 16.8125 0 L 1.953125 0 L 1.953125 -1.890625 L 4.59375 -1.953125 L 4.59375 -34.265625 L 1.953125 -34.3125 L 1.953125 -36.21875 L 12.375 -36.109375 L 20.265625 -36.75 C 23.722656 -36.75 26.367188 -36 28.203125 -34.5 C 30.046875 -33.007812 30.96875 -31.039062 30.96875 -28.59375 C 30.96875 -26.28125 30.191406 -24.285156 28.640625 -22.609375 C 27.097656 -20.941406 24.828125 -19.601562 21.828125 -18.59375 Z M 21.34375 -26.53125 C 21.34375 -29.09375 20.6875 -31.03125 19.375 -32.34375 C 18.0625 -33.65625 16.125 -34.3125 13.5625 -34.3125 L 13.5625 -18.75 C 16.195312 -18.9375 18.148438 -19.664062 19.421875 -20.9375 C 20.703125 -22.21875 21.34375 -24.082031 21.34375 -26.53125 Z M 13.5625 -1.890625 C 17.238281 -1.890625 19.90625 -2.460938 21.5625 -3.609375 C 23.21875 -4.765625 24.046875 -6.609375 24.046875 -9.140625 C 24.046875 -11.660156 23.296875 -13.566406 21.796875 -14.859375 C 20.304688 -16.160156 18.101562 -16.8125 15.1875 -16.8125 L 13.5625 -16.8125 Z M 13.5625 -1.890625 "/></g></g></g><g fill="#ffffff" fill-opacity="1"><g transform="translate(217.333344, 159.306665)"><g><path d="M 19.40625 -37.015625 C 22.9375 -37.015625 26.023438 -36.332031 28.671875 -34.96875 C 31.316406 -33.601562 33.367188 -31.585938 34.828125 -28.921875 C 36.285156 -26.253906 37.015625 -22.988281 37.015625 -19.125 C 37.015625 -16.675781 36.582031 -14.144531 35.71875 -11.53125 C 34.851562 -8.925781 33.59375 -6.613281 31.9375 -4.59375 C 30.207031 -2.96875 28.222656 -1.660156 25.984375 -0.671875 C 23.753906 0.316406 21.378906 0.8125 18.859375 0.8125 C 15.367188 0.8125 12.296875 0.128906 9.640625 -1.234375 C 6.992188 -2.609375 4.941406 -4.628906 3.484375 -7.296875 C 2.023438 -9.960938 1.296875 -13.222656 1.296875 -17.078125 C 1.296875 -19.492188 1.742188 -22.015625 2.640625 -24.640625 C 3.546875 -27.273438 4.828125 -29.601562 6.484375 -31.625 C 8.179688 -33.238281 10.132812 -34.539062 12.34375 -35.53125 C 14.5625 -36.519531 16.914062 -37.015625 19.40625 -37.015625 Z M 10.921875 -20.859375 C 10.921875 -16.679688 11.457031 -13.3125 12.53125 -10.75 C 13.613281 -8.195312 15.253906 -6.316406 17.453125 -5.109375 C 19.648438 -3.898438 22.5 -3.207031 26 -3.03125 C 26.425781 -4.832031 26.773438 -6.945312 27.046875 -9.375 C 27.316406 -11.8125 27.453125 -13.800781 27.453125 -15.34375 C 27.453125 -19.5625 26.898438 -22.957031 25.796875 -25.53125 C 24.703125 -28.113281 23.035156 -30.015625 20.796875 -31.234375 C 18.566406 -32.460938 15.722656 -33.148438 12.265625 -33.296875 C 11.867188 -31.421875 11.546875 -29.238281 11.296875 -26.75 C 11.046875 -24.269531 10.921875 -22.304688 10.921875 -20.859375 Z M 10.921875 -20.859375 "/></g></g></g><g fill="#ffffff" fill-opacity="1"><g transform="translate(255.648108, 159.306665)"><g><path d="M 19.40625 -37.015625 C 22.9375 -37.015625 26.023438 -36.332031 28.671875 -34.96875 C 31.316406 -33.601562 33.367188 -31.585938 34.828125 -28.921875 C 36.285156 -26.253906 37.015625 -22.988281 37.015625 -19.125 C 37.015625 -16.675781 36.582031 -14.144531 35.71875 -11.53125 C 34.851562 -8.925781 33.59375 -6.613281 31.9375 -4.59375 C 30.207031 -2.96875 28.222656 -1.660156 25.984375 -0.671875 C 23.753906 0.316406 21.378906 0.8125 18.859375 0.8125 C 15.367188 0.8125 12.296875 0.128906 9.640625 -1.234375 C 6.992188 -2.609375 4.941406 -4.628906 3.484375 -7.296875 C 2.023438 -9.960938 1.296875 -13.222656 1.296875 -17.078125 C 1.296875 -19.492188 1.742188 -22.015625 2.640625 -24.640625 C 3.546875 -27.273438 4.828125 -29.601562 6.484375 -31.625 C 8.179688 -33.238281 10.132812 -34.539062 12.34375 -35.53125 C 14.5625 -36.519531 16.914062 -37.015625 19.40625 -37.015625 Z M 10.921875 -20.859375 C 10.921875 -16.679688 11.457031 -13.3125 12.53125 -10.75 C 13.613281 -8.195312 15.253906 -6.316406 17.453125 -5.109375 C 19.648438 -3.898438 22.5 -3.207031 26 -3.03125 C 26.425781 -4.832031 26.773438 -6.945312 27.046875 -9.375 C 27.316406 -11.8125 27.453125 -13.800781 27.453125 -15.34375 C 27.453125 -19.5625 26.898438 -22.957031 25.796875 -25.53125 C 24.703125 -28.113281 23.035156 -30.015625 20.796875 -31.234375 C 18.566406 -32.460938 15.722656 -33.148438 12.265625 -33.296875 C 11.867188 -31.421875 11.546875 -29.238281 11.296875 -26.75 C 11.046875 -24.269531 10.921875 -22.304688 10.921875 -20.859375 Z M 10.921875 -20.859375 "/></g></g></g><g fill="#ffffff" fill-opacity="1"><g transform="translate(293.962872, 159.306665)"><g><path d="M 13.5625 -1.953125 L 16.21875 -1.890625 L 16.21875 0 L 1.953125 0 L 1.953125 -1.890625 L 4.59375 -1.953125 L 4.59375 -34.265625 L 1.953125 -34.3125 L 1.953125 -36.21875 L 16.21875 -36.21875 L 16.21875 -34.3125 L 13.5625 -34.265625 Z M 37.71875 -1.890625 L 37.71875 0 L 20.921875 0 L 20.921875 -1.890625 L 23.5625 -1.953125 L 14.375 -17.78125 L 26.109375 -34.265625 L 23.453125 -34.3125 L 23.453125 -36.21875 L 36.3125 -36.21875 L 36.3125 -34.3125 L 33.40625 -34.265625 L 21.40625 -22.640625 L 35.078125 -1.953125 Z M 37.71875 -1.890625 "/></g></g></g><g fill="#ffffff" fill-opacity="1"><g transform="translate(331.791257, 159.306665)"><g><path d="M 11.734375 -30.484375 C 11.734375 -29.328125 12.054688 -28.257812 12.703125 -27.28125 C 13.347656 -26.3125 14.15625 -25.445312 15.125 -24.6875 C 16.101562 -23.9375 17.4375 -23.003906 19.125 -21.890625 C 21.113281 -20.585938 22.703125 -19.441406 23.890625 -18.453125 C 25.078125 -17.460938 26.09375 -16.273438 26.9375 -14.890625 C 27.789062 -13.503906 28.21875 -11.945312 28.21875 -10.21875 C 28.21875 -8.300781 27.691406 -6.503906 26.640625 -4.828125 C 25.597656 -3.160156 24.03125 -1.800781 21.9375 -0.75 C 19.851562 0.289062 17.332031 0.8125 14.375 0.8125 C 8.03125 0.8125 3.523438 -1.707031 0.859375 -6.75 L 6.96875 -11.453125 C 8.695312 -7.890625 10.644531 -4.429688 12.8125 -1.078125 L 12.859375 -1.078125 C 13.910156 -1.078125 14.882812 -1.351562 15.78125 -1.90625 C 16.6875 -2.46875 17.40625 -3.195312 17.9375 -4.09375 C 18.476562 -5 18.75 -5.957031 18.75 -6.96875 C 18.75 -8.050781 18.429688 -9.050781 17.796875 -9.96875 C 17.171875 -10.882812 16.390625 -11.691406 15.453125 -12.390625 C 14.515625 -13.097656 13.238281 -13.957031 11.625 -14.96875 C 9.675781 -16.195312 8.109375 -17.28125 6.921875 -18.21875 C 5.734375 -19.15625 4.710938 -20.296875 3.859375 -21.640625 C 3.015625 -22.992188 2.59375 -24.554688 2.59375 -26.328125 C 2.59375 -28.304688 3.160156 -30.113281 4.296875 -31.75 C 5.429688 -33.394531 7.050781 -34.679688 9.15625 -35.609375 C 11.269531 -36.546875 13.75 -37.015625 16.59375 -37.015625 C 19.363281 -37.015625 21.640625 -36.570312 23.421875 -35.6875 C 25.210938 -34.8125 26.828125 -33.5625 28.265625 -31.9375 L 22.59375 -26.21875 C 20.6875 -29.382812 18.757812 -32.351562 16.8125 -35.125 C 15.1875 -35.125 13.929688 -34.679688 13.046875 -33.796875 C 12.171875 -32.921875 11.734375 -31.816406 11.734375 -30.484375 Z M 11.734375 -30.484375 "/></g></g></g><g fill="#ffffff" fill-opacity="1"><g transform="translate(139.821499, 208.800001)"><g><path d="M 8.695312 -6.535156 C 9.628906 -7.09375 10.242188 -8.242188 10.242188 -9.378906 C 10.242188 -11.214844 8.746094 -12.601562 6.695312 -12.601562 L 1.710938 -12.601562 L 1.710938 0 L 6.75 0 C 8.929688 0 10.566406 -1.511719 10.566406 -3.457031 C 10.566406 -4.84375 9.863281 -6.03125 8.695312 -6.535156 Z M 8.621094 -9.160156 C 8.621094 -8.117188 7.792969 -7.273438 6.660156 -7.273438 L 3.277344 -7.273438 L 3.277344 -11.050781 L 6.660156 -11.050781 C 7.757812 -11.050781 8.621094 -10.222656 8.621094 -9.160156 Z M 6.730469 -1.546875 L 3.277344 -1.546875 L 3.277344 -5.722656 L 6.75 -5.722656 C 7.992188 -5.722656 8.945312 -4.824219 8.945312 -3.636719 C 8.945312 -2.429688 7.992188 -1.546875 6.730469 -1.546875 Z M 6.730469 -1.546875 "/></g></g></g><g fill="#ffffff" fill-opacity="1"><g transform="translate(157.911488, 208.800001)"><g><path d="M 7.453125 0.214844 C 11.269531 0.214844 14.039062 -2.574219 14.039062 -6.28125 C 14.039062 -10.007812 11.269531 -12.796875 7.453125 -12.796875 C 3.636719 -12.796875 0.847656 -10.007812 0.847656 -6.28125 C 0.847656 -2.574219 3.636719 0.214844 7.453125 0.214844 Z M 7.453125 -1.332031 C 4.589844 -1.332031 2.464844 -3.472656 2.464844 -6.28125 C 2.464844 -9.109375 4.589844 -11.25 7.453125 -11.25 C 10.3125 -11.25 12.4375 -9.125 12.4375 -6.28125 C 12.4375 -3.457031 10.3125 -1.332031 7.453125 -1.332031 Z M 7.453125 -1.332031 "/></g></g></g><g fill="#ffffff" fill-opacity="1"><g transform="translate(179.313464, 208.800001)"><g><path d="M 7.453125 0.214844 C 11.269531 0.214844 14.039062 -2.574219 14.039062 -6.28125 C 14.039062 -10.007812 11.269531 -12.796875 7.453125 -12.796875 C 3.636719 -12.796875 0.847656 -10.007812 0.847656 -6.28125 C 0.847656 -2.574219 3.636719 0.214844 7.453125 0.214844 Z M 7.453125 -1.332031 C 4.589844 -1.332031 2.464844 -3.472656 2.464844 -6.28125 C 2.464844 -9.109375 4.589844 -11.25 7.453125 -11.25 C 10.3125 -11.25 12.4375 -9.125 12.4375 -6.28125 C 12.4375 -3.457031 10.3125 -1.332031 7.453125 -1.332031 Z M 7.453125 -1.332031 "/></g></g></g><g fill="#ffffff" fill-opacity="1"><g transform="translate(200.71544, 208.800001)"><g><path d="M 9.394531 0 L 11.429688 0 L 6.40625 -6.535156 L 11.015625 -12.601562 L 9 -12.601562 L 4.96875 -7.234375 L 3.292969 -7.234375 L 3.292969 -12.601562 L 1.710938 -12.601562 L 1.710938 0 L 3.292969 0 L 3.292969 -5.761719 L 4.96875 -5.761719 Z M 9.394531 0 "/></g></g></g><g fill="#ffffff" fill-opacity="1"><g transform="translate(218.625436, 208.800001)"><g><path d="M 5.472656 0.160156 C 7.972656 0.160156 9.917969 -1.1875 9.917969 -3.5625 C 9.917969 -6.191406 7.6875 -6.714844 5.707031 -7.199219 C 4.085938 -7.578125 2.628906 -7.9375 2.628906 -9.304688 C 2.628906 -10.511719 3.78125 -11.230469 5.308594 -11.230469 C 6.839844 -11.230469 7.992188 -10.421875 7.992188 -9.019531 L 9.558594 -9.019531 C 9.558594 -11.304688 7.957031 -12.742188 5.347656 -12.742188 C 2.734375 -12.742188 1.0625 -11.429688 1.0625 -9.253906 C 1.0625 -6.730469 3.203125 -6.210938 5.148438 -5.761719 C 6.785156 -5.363281 8.28125 -5.023438 8.28125 -3.546875 C 8.28125 -2.214844 7.039062 -1.386719 5.453125 -1.386719 C 3.707031 -1.386719 2.429688 -2.304688 2.429688 -3.871094 L 0.808594 -3.871094 C 0.808594 -1.386719 2.699219 0.160156 5.472656 0.160156 Z M 5.472656 0.160156 "/></g></g></g><g fill="#ffffff" fill-opacity="1"><g transform="translate(235.851432, 208.800001)"><g/></g></g><g fill="#ffffff" fill-opacity="1"><g transform="translate(247.047438, 208.800001)"><g><path d="M 7.453125 0.214844 C 11.269531 0.214844 14.039062 -2.574219 14.039062 -6.28125 C 14.039062 -10.007812 11.269531 -12.796875 7.453125 -12.796875 C 3.636719 -12.796875 0.847656 -10.007812 0.847656 -6.28125 C 0.847656 -2.574219 3.636719 0.214844 7.453125 0.214844 Z M 7.453125 -1.332031 C 4.589844 -1.332031 2.464844 -3.472656 2.464844 -6.28125 C 2.464844 -9.109375 4.589844 -11.25 7.453125 -11.25 C 10.3125 -11.25 12.4375 -9.125 12.4375 -6.28125 C 12.4375 -3.457031 10.3125 -1.332031 7.453125 -1.332031 Z M 7.453125 -1.332031 "/></g></g></g><g fill="#ffffff" fill-opacity="1"><g transform="translate(268.44941, 208.800001)"><g><path d="M 10.207031 -12.601562 L 10.207031 -2.878906 L 3.148438 -12.601562 L 1.710938 -12.601562 L 1.710938 0 L 3.257812 0 L 3.257812 -9.828125 L 10.421875 0 L 11.753906 0 L 11.753906 -12.601562 Z M 10.207031 -12.601562 "/></g></g></g><g fill="#ffffff" fill-opacity="1"><g transform="translate(288.411395, 208.800001)"><g><path d="M 3.292969 -1.476562 L 3.292969 -12.601562 L 1.710938 -12.601562 L 1.710938 0 L 8.820312 0 L 8.820312 -1.476562 Z M 3.292969 -1.476562 "/></g></g></g><g fill="#ffffff" fill-opacity="1"><g transform="translate(304.10739, 208.800001)"><g><path d="M 1.710938 0 L 3.292969 0 L 3.292969 -12.601562 L 1.710938 -12.601562 Z M 1.710938 0 "/></g></g></g><g fill="#ffffff" fill-opacity="1"><g transform="translate(315.609399, 208.800001)"><g><path d="M 10.207031 -12.601562 L 10.207031 -2.878906 L 3.148438 -12.601562 L 1.710938 -12.601562 L 1.710938 0 L 3.257812 0 L 3.257812 -9.828125 L 10.421875 0 L 11.753906 0 L 11.753906 -12.601562 Z M 10.207031 -12.601562 "/></g></g></g><g fill="#ffffff" fill-opacity="1"><g transform="translate(335.571396, 208.800001)"><g><path d="M 3.292969 -1.511719 L 3.292969 -5.742188 L 8.371094 -5.742188 L 8.371094 -7.199219 L 3.292969 -7.199219 L 3.292969 -11.089844 L 8.839844 -11.089844 L 8.839844 -12.601562 L 1.710938 -12.601562 L 1.710938 0 L 9.035156 0 L 9.035156 -1.511719 Z M 3.292969 -1.511719 "/></g></g></g><path stroke-linecap="butt" transform="matrix(0.751042, 0, 0, 0.75, 143.51087, 175.483246)" fill="none" stroke-linejoin="miter" d="M 0.00112973 0.501505 L 258.652175 0.501505 " stroke="#ffffff" stroke-width="1" stroke-opacity="1" stroke-miterlimit="4"/></svg>