<svg xmlns="http://www.w3.org/2000/svg" xmlns:xlink="http://www.w3.org/1999/xlink" width="500" zoomAndPan="magnify" viewBox="0 0 375 374.999991" height="500" preserveAspectRatio="xMidYMid meet" version="1.0"><defs><g/><clipPath id="0ecefba23f"><path d="M 150 26.886719 L 266 26.886719 L 266 31 L 150 31 Z M 150 26.886719 " clip-rule="nonzero"/></clipPath><clipPath id="4b4b22a2b2"><path d="M 107 26.886719 L 264 26.886719 L 264 75 L 107 75 Z M 107 26.886719 " clip-rule="nonzero"/></clipPath><clipPath id="864dddfe7e"><path d="M 93 131 L 269 131 L 269 176.136719 L 93 176.136719 Z M 93 131 " clip-rule="nonzero"/></clipPath></defs><path fill="#172554" d="M 261.9375 69.183594 C 261.933594 69.1875 261.929688 69.1875 261.925781 69.183594 L 132.375 69.183594 C 123.371094 69.183594 116.316406 60.992188 116.316406 50.535156 C 116.316406 40.25 123.523438 31.882812 132.375 31.882812 L 261.925781 31.882812 C 262.644531 31.882812 263.285156 32.335938 263.53125 33.015625 C 263.773438 33.691406 263.5625 34.449219 263.007812 34.90625 C 262.933594 34.964844 255.429688 41.269531 255.128906 50.070312 C 254.941406 55.566406 257.585938 60.96875 262.976562 66.128906 C 263.382812 66.441406 263.644531 66.929688 263.644531 67.480469 C 263.644531 68.421875 262.878906 69.183594 261.9375 69.183594 Z M 132.375 35.292969 C 125.402344 35.292969 119.730469 42.128906 119.730469 50.535156 C 119.730469 59.082031 125.285156 65.773438 132.375 65.773438 L 257.945312 65.773438 C 253.617188 60.726562 251.527344 55.410156 251.722656 49.921875 C 251.953125 43.480469 255.292969 38.332031 257.867188 35.292969 Z M 132.375 35.292969 " fill-opacity="1" fill-rule="nonzero"/><g clip-path="url(#0ecefba23f)"><path fill="#172554" d="M 263.988281 30.320312 L 152.359375 30.320312 C 151.417969 30.320312 150.65625 29.558594 150.65625 28.617188 C 150.65625 27.675781 151.417969 26.914062 152.359375 26.914062 L 263.988281 26.914062 C 264.933594 26.914062 265.695312 27.675781 265.695312 28.617188 C 265.695312 29.558594 264.933594 30.320312 263.988281 30.320312 Z M 263.988281 30.320312 " fill-opacity="1" fill-rule="nonzero"/></g><g clip-path="url(#4b4b22a2b2)"><path fill="#172554" d="M 261.898438 74.15625 L 129.695312 74.15625 C 117.503906 74.15625 107.953125 63.78125 107.953125 50.535156 C 107.953125 37.507812 117.707031 26.910156 129.695312 26.910156 L 138.832031 26.910156 C 139.773438 26.910156 140.535156 27.675781 140.535156 28.617188 C 140.535156 29.558594 139.773438 30.320312 138.832031 30.320312 L 129.695312 30.320312 C 119.589844 30.320312 111.363281 39.386719 111.363281 50.535156 C 111.363281 61.867188 119.417969 70.746094 129.695312 70.746094 L 261.894531 70.746094 C 262.839844 70.746094 263.601562 71.511719 263.601562 72.453125 C 263.601562 73.394531 262.839844 74.15625 261.898438 74.15625 Z M 261.898438 74.15625 " fill-opacity="1" fill-rule="nonzero"/></g><path fill="#172554" d="M 135.589844 81.296875 L 112.546875 81.296875 C 111.605469 81.296875 110.84375 80.535156 110.84375 79.59375 C 110.84375 78.652344 111.605469 77.886719 112.546875 77.886719 L 135.589844 77.886719 C 136.53125 77.886719 137.296875 78.652344 137.296875 79.59375 C 137.296875 80.535156 136.53125 81.296875 135.589844 81.296875 Z M 135.589844 81.296875 " fill-opacity="1" fill-rule="nonzero"/><path fill="#172554" d="M 246.839844 127.84375 L 114.640625 127.84375 C 113.699219 127.84375 112.933594 127.082031 112.933594 126.140625 C 112.933594 125.199219 113.699219 124.433594 114.640625 124.433594 L 246.839844 124.433594 C 257.121094 124.433594 265.171875 114.960938 265.171875 102.867188 C 265.171875 90.972656 256.949219 81.296875 246.839844 81.296875 L 153.839844 81.296875 C 152.898438 81.296875 152.132812 80.535156 152.132812 79.59375 C 152.132812 78.652344 152.898438 77.886719 153.839844 77.886719 L 246.839844 77.886719 C 258.828125 77.886719 268.582031 89.09375 268.582031 102.867188 C 268.582031 116.871094 259.03125 127.84375 246.839844 127.84375 Z M 246.839844 127.84375 " fill-opacity="1" fill-rule="nonzero"/><path fill="#172554" d="M 244.476562 122.882812 L 115.835938 122.882812 C 115.148438 122.882812 114.53125 122.472656 114.265625 121.84375 C 113.996094 121.214844 114.132812 120.484375 114.609375 119.992188 C 120.109375 114.316406 122.785156 108.351562 122.566406 102.269531 C 122.21875 92.65625 114.773438 85.890625 114.699219 85.824219 C 114.171875 85.355469 113.988281 84.605469 114.242188 83.945312 C 114.492188 83.285156 115.128906 82.851562 115.835938 82.851562 L 244.476562 82.851562 C 253.273438 82.851562 260.433594 91.828125 260.433594 102.867188 C 260.433594 114.089844 253.425781 122.882812 244.476562 122.882812 Z M 119.617188 119.472656 L 244.476562 119.472656 C 251.511719 119.472656 257.023438 112.179688 257.023438 102.867188 C 257.023438 93.707031 251.394531 86.257812 244.476562 86.257812 L 119.699219 86.257812 C 122.253906 89.472656 125.71875 95.085938 125.972656 102.144531 C 126.191406 108.136719 124.054688 113.953125 119.617188 119.472656 Z M 119.617188 119.472656 " fill-opacity="1" fill-rule="nonzero"/><path fill="#172554" d="M 266.878906 135.179688 L 238.089844 135.179688 C 237.148438 135.179688 236.386719 134.414062 236.386719 133.472656 C 236.386719 132.53125 237.148438 131.769531 238.089844 131.769531 L 266.878906 131.769531 C 267.820312 131.769531 268.582031 132.53125 268.582031 133.472656 C 268.582031 134.414062 267.820312 135.179688 266.878906 135.179688 Z M 266.878906 135.179688 " fill-opacity="1" fill-rule="nonzero"/><g clip-path="url(#864dddfe7e)"><path fill="#172554" d="M 266.878906 176.183594 L 114.367188 176.183594 C 102.425781 176.183594 93.070312 166.429688 93.070312 153.976562 C 93.070312 141.730469 102.625 131.769531 114.367188 131.769531 L 223.421875 131.769531 C 224.367188 131.769531 225.128906 132.53125 225.128906 133.472656 C 225.128906 134.414062 224.367188 135.179688 223.421875 135.179688 L 114.367188 135.179688 C 104.507812 135.179688 96.480469 143.613281 96.480469 153.976562 C 96.480469 164.515625 104.339844 172.773438 114.367188 172.773438 L 266.878906 172.773438 C 267.820312 172.773438 268.585938 173.539062 268.585938 174.480469 C 268.585938 175.421875 267.820312 176.183594 266.878906 176.183594 Z M 266.878906 176.183594 " fill-opacity="1" fill-rule="nonzero"/></g><path fill="#172554" d="M 266.890625 169.96875 C 266.890625 169.96875 266.882812 169.96875 266.878906 169.96875 L 117.027344 169.96875 C 108.242188 169.96875 101.355469 162.945312 101.355469 153.976562 C 101.355469 145.15625 108.386719 137.984375 117.027344 137.984375 L 266.878906 137.984375 C 267.621094 137.984375 268.277344 138.460938 268.503906 139.167969 C 268.726562 139.875 268.472656 140.644531 267.867188 141.074219 C 267.796875 141.125 260.550781 146.402344 260.3125 153.675781 C 260.164062 158.148438 262.695312 162.582031 267.839844 166.847656 C 268.296875 167.152344 268.597656 167.671875 268.597656 168.265625 C 268.597656 169.207031 267.835938 169.96875 266.890625 169.96875 Z M 117.027344 141.390625 C 110.269531 141.390625 104.769531 147.035156 104.769531 153.976562 C 104.769531 161.035156 110.152344 166.558594 117.027344 166.558594 L 262.539062 166.558594 C 258.640625 162.421875 256.746094 158.054688 256.902344 153.539062 C 257.085938 148.292969 260.007812 144.058594 262.476562 141.390625 Z M 117.027344 141.390625 " fill-opacity="1" fill-rule="nonzero"/><g fill="#172554" fill-opacity="1"><g transform="translate(51.526165, 246.171866)"><g><path d="M 34.90625 -12.796875 L 34.90625 0 L 2.3125 0 L 2.3125 -2.25 L 5.46875 -2.3125 L 5.46875 -40.75 L 2.3125 -40.8125 L 2.3125 -43.0625 L 33.625 -43.0625 L 33.625 -30.59375 L 31.109375 -30.65625 L 30.984375 -33.875 C 26.222656 -36.832031 21.273438 -39.316406 16.140625 -41.328125 L 16.265625 -23.46875 L 28.28125 -23.46875 L 28.28125 -21.078125 L 16.265625 -21.078125 L 16.390625 -1.796875 C 21.878906 -3.898438 27.171875 -6.472656 32.265625 -9.515625 L 32.390625 -12.734375 Z M 34.90625 -12.796875 "/></g></g></g><g fill="#172554" fill-opacity="1"><g transform="translate(88.03616, 246.171866)"><g><path d="M 1.921875 -17.9375 L 22.046875 -18.453125 L 21.40625 -15.484375 L 1.609375 -15.484375 Z M 1.921875 -17.9375 "/></g></g></g><g fill="#172554" fill-opacity="1"><g transform="translate(112.14047, 246.171866)"><g><path d="M 29.375 -22.3125 C 31.644531 -22.3125 33.582031 -21.847656 35.1875 -20.921875 C 36.800781 -20.003906 38.015625 -18.816406 38.828125 -17.359375 C 39.640625 -15.898438 40.046875 -14.359375 40.046875 -12.734375 C 40.046875 -8.742188 38.34375 -5.625 34.9375 -3.375 C 31.53125 -1.125 26.546875 0 19.984375 0 L 2.3125 0 L 2.3125 -2.25 L 5.46875 -2.3125 L 5.46875 -40.75 L 2.3125 -40.8125 L 2.3125 -43.0625 L 14.71875 -42.9375 L 24.109375 -43.71875 C 28.222656 -43.71875 31.367188 -42.828125 33.546875 -41.046875 C 35.734375 -39.265625 36.828125 -36.914062 36.828125 -34 C 36.828125 -31.257812 35.90625 -28.890625 34.0625 -26.890625 C 32.226562 -24.898438 29.53125 -23.304688 25.96875 -22.109375 Z M 25.390625 -31.5625 C 25.390625 -34.601562 24.609375 -36.90625 23.046875 -38.46875 C 21.484375 -40.03125 19.179688 -40.8125 16.140625 -40.8125 L 16.140625 -22.3125 C 19.265625 -22.519531 21.585938 -23.382812 23.109375 -24.90625 C 24.628906 -26.425781 25.390625 -28.644531 25.390625 -31.5625 Z M 16.140625 -2.25 C 20.503906 -2.25 23.671875 -2.929688 25.640625 -4.296875 C 27.617188 -5.671875 28.609375 -7.859375 28.609375 -10.859375 C 28.609375 -13.859375 27.71875 -16.128906 25.9375 -17.671875 C 24.15625 -19.210938 21.53125 -19.984375 18.0625 -19.984375 L 16.140625 -19.984375 Z M 16.140625 -2.25 "/></g></g></g><g fill="#172554" fill-opacity="1"><g transform="translate(152.957089, 246.171866)"><g><path d="M 23.078125 -44.03125 C 27.273438 -44.03125 30.945312 -43.210938 34.09375 -41.578125 C 37.25 -39.953125 39.691406 -37.554688 41.421875 -34.390625 C 43.160156 -31.222656 44.03125 -27.34375 44.03125 -22.75 C 44.03125 -19.84375 43.515625 -16.832031 42.484375 -13.71875 C 41.460938 -10.613281 39.960938 -7.863281 37.984375 -5.46875 C 35.929688 -3.539062 33.578125 -1.984375 30.921875 -0.796875 C 28.265625 0.378906 25.4375 0.96875 22.4375 0.96875 C 18.28125 0.96875 14.625 0.15625 11.46875 -1.46875 C 8.320312 -3.101562 5.878906 -5.503906 4.140625 -8.671875 C 2.410156 -11.847656 1.546875 -15.726562 1.546875 -20.3125 C 1.546875 -23.1875 2.078125 -26.1875 3.140625 -29.3125 C 4.210938 -32.4375 5.738281 -35.203125 7.71875 -37.609375 C 9.726562 -39.535156 12.050781 -41.085938 14.6875 -42.265625 C 17.320312 -43.441406 20.117188 -44.03125 23.078125 -44.03125 Z M 12.984375 -24.8125 C 12.984375 -19.84375 13.625 -15.835938 14.90625 -12.796875 C 16.195312 -9.753906 18.148438 -7.515625 20.765625 -6.078125 C 23.378906 -4.640625 26.765625 -3.8125 30.921875 -3.59375 C 31.429688 -5.738281 31.847656 -8.253906 32.171875 -11.140625 C 32.492188 -14.035156 32.65625 -16.40625 32.65625 -18.25 C 32.65625 -23.269531 32 -27.3125 30.6875 -30.375 C 29.382812 -33.4375 27.40625 -35.695312 24.75 -37.15625 C 22.09375 -38.613281 18.707031 -39.425781 14.59375 -39.59375 C 14.125 -37.363281 13.738281 -34.769531 13.4375 -31.8125 C 13.132812 -28.863281 12.984375 -26.53125 12.984375 -24.8125 Z M 12.984375 -24.8125 "/></g></g></g><g fill="#172554" fill-opacity="1"><g transform="translate(198.530308, 246.171866)"><g><path d="M 23.078125 -44.03125 C 27.273438 -44.03125 30.945312 -43.210938 34.09375 -41.578125 C 37.25 -39.953125 39.691406 -37.554688 41.421875 -34.390625 C 43.160156 -31.222656 44.03125 -27.34375 44.03125 -22.75 C 44.03125 -19.84375 43.515625 -16.832031 42.484375 -13.71875 C 41.460938 -10.613281 39.960938 -7.863281 37.984375 -5.46875 C 35.929688 -3.539062 33.578125 -1.984375 30.921875 -0.796875 C 28.265625 0.378906 25.4375 0.96875 22.4375 0.96875 C 18.28125 0.96875 14.625 0.15625 11.46875 -1.46875 C 8.320312 -3.101562 5.878906 -5.503906 4.140625 -8.671875 C 2.410156 -11.847656 1.546875 -15.726562 1.546875 -20.3125 C 1.546875 -23.1875 2.078125 -26.1875 3.140625 -29.3125 C 4.210938 -32.4375 5.738281 -35.203125 7.71875 -37.609375 C 9.726562 -39.535156 12.050781 -41.085938 14.6875 -42.265625 C 17.320312 -43.441406 20.117188 -44.03125 23.078125 -44.03125 Z M 12.984375 -24.8125 C 12.984375 -19.84375 13.625 -15.835938 14.90625 -12.796875 C 16.195312 -9.753906 18.148438 -7.515625 20.765625 -6.078125 C 23.378906 -4.640625 26.765625 -3.8125 30.921875 -3.59375 C 31.429688 -5.738281 31.847656 -8.253906 32.171875 -11.140625 C 32.492188 -14.035156 32.65625 -16.40625 32.65625 -18.25 C 32.65625 -23.269531 32 -27.3125 30.6875 -30.375 C 29.382812 -33.4375 27.40625 -35.695312 24.75 -37.15625 C 22.09375 -38.613281 18.707031 -39.425781 14.59375 -39.59375 C 14.125 -37.363281 13.738281 -34.769531 13.4375 -31.8125 C 13.132812 -28.863281 12.984375 -26.53125 12.984375 -24.8125 Z M 12.984375 -24.8125 "/></g></g></g><g fill="#172554" fill-opacity="1"><g transform="translate(244.103527, 246.171866)"><g><path d="M 16.140625 -2.3125 L 19.28125 -2.25 L 19.28125 0 L 2.3125 0 L 2.3125 -2.25 L 5.46875 -2.3125 L 5.46875 -40.75 L 2.3125 -40.8125 L 2.3125 -43.0625 L 19.28125 -43.0625 L 19.28125 -40.8125 L 16.140625 -40.75 Z M 44.875 -2.25 L 44.875 0 L 24.875 0 L 24.875 -2.25 L 28.03125 -2.3125 L 17.09375 -21.15625 L 31.046875 -40.75 L 27.890625 -40.8125 L 27.890625 -43.0625 L 43.203125 -43.0625 L 43.203125 -40.8125 L 39.71875 -40.75 L 25.453125 -26.9375 L 41.71875 -2.3125 Z M 44.875 -2.25 "/></g></g></g><g fill="#172554" fill-opacity="1"><g transform="translate(289.098226, 246.171866)"><g><path d="M 13.953125 -36.25 C 13.953125 -34.882812 14.335938 -33.617188 15.109375 -32.453125 C 15.878906 -31.296875 16.84375 -30.269531 18 -29.375 C 19.15625 -28.476562 20.738281 -27.363281 22.75 -26.03125 C 25.113281 -24.488281 27 -23.128906 28.40625 -21.953125 C 29.820312 -20.773438 31.035156 -19.359375 32.046875 -17.703125 C 33.054688 -16.054688 33.5625 -14.207031 33.5625 -12.15625 C 33.5625 -9.882812 32.9375 -7.75 31.6875 -5.75 C 30.445312 -3.757812 28.582031 -2.140625 26.09375 -0.890625 C 23.613281 0.347656 20.613281 0.96875 17.09375 0.96875 C 9.550781 0.96875 4.195312 -2.03125 1.03125 -8.03125 L 8.296875 -13.625 C 10.347656 -9.382812 12.660156 -5.269531 15.234375 -1.28125 L 15.296875 -1.28125 C 16.535156 -1.28125 17.691406 -1.613281 18.765625 -2.28125 C 19.835938 -2.945312 20.695312 -3.816406 21.34375 -4.890625 C 21.988281 -5.960938 22.3125 -7.097656 22.3125 -8.296875 C 22.3125 -9.578125 21.9375 -10.765625 21.1875 -11.859375 C 20.4375 -12.953125 19.503906 -13.914062 18.390625 -14.75 C 17.273438 -15.582031 15.753906 -16.601562 13.828125 -17.8125 C 11.503906 -19.257812 9.632812 -20.539062 8.21875 -21.65625 C 6.8125 -22.769531 5.601562 -24.128906 4.59375 -25.734375 C 3.582031 -27.347656 3.078125 -29.207031 3.078125 -31.3125 C 3.078125 -33.664062 3.753906 -35.816406 5.109375 -37.765625 C 6.460938 -39.710938 8.390625 -41.242188 10.890625 -42.359375 C 13.398438 -43.472656 16.347656 -44.03125 19.734375 -44.03125 C 23.035156 -44.03125 25.742188 -43.503906 27.859375 -42.453125 C 29.984375 -41.410156 31.90625 -39.921875 33.625 -37.984375 L 26.875 -31.171875 C 24.601562 -34.941406 22.304688 -38.476562 19.984375 -41.78125 C 18.054688 -41.78125 16.566406 -41.253906 15.515625 -40.203125 C 14.472656 -39.160156 13.953125 -37.84375 13.953125 -36.25 Z M 13.953125 -36.25 "/></g></g></g><g fill="#172554" fill-opacity="1"><g transform="translate(83.499923, 293.295127)"><g><path d="M 8.695312 -6.535156 C 9.628906 -7.09375 10.242188 -8.242188 10.242188 -9.378906 C 10.242188 -11.214844 8.746094 -12.601562 6.695312 -12.601562 L 1.710938 -12.601562 L 1.710938 0 L 6.75 0 C 8.929688 0 10.566406 -1.511719 10.566406 -3.457031 C 10.566406 -4.84375 9.863281 -6.03125 8.695312 -6.535156 Z M 8.621094 -9.160156 C 8.621094 -8.117188 7.792969 -7.273438 6.660156 -7.273438 L 3.277344 -7.273438 L 3.277344 -11.050781 L 6.660156 -11.050781 C 7.757812 -11.050781 8.621094 -10.222656 8.621094 -9.160156 Z M 6.730469 -1.546875 L 3.277344 -1.546875 L 3.277344 -5.722656 L 6.75 -5.722656 C 7.992188 -5.722656 8.945312 -4.824219 8.945312 -3.636719 C 8.945312 -2.429688 7.992188 -1.546875 6.730469 -1.546875 Z M 6.730469 -1.546875 "/></g></g></g><g fill="#172554" fill-opacity="1"><g transform="translate(101.589911, 293.295127)"><g><path d="M 7.453125 0.214844 C 11.269531 0.214844 14.039062 -2.574219 14.039062 -6.28125 C 14.039062 -10.007812 11.269531 -12.796875 7.453125 -12.796875 C 3.636719 -12.796875 0.847656 -10.007812 0.847656 -6.28125 C 0.847656 -2.574219 3.636719 0.214844 7.453125 0.214844 Z M 7.453125 -1.332031 C 4.589844 -1.332031 2.464844 -3.472656 2.464844 -6.28125 C 2.464844 -9.109375 4.589844 -11.25 7.453125 -11.25 C 10.3125 -11.25 12.4375 -9.125 12.4375 -6.28125 C 12.4375 -3.457031 10.3125 -1.332031 7.453125 -1.332031 Z M 7.453125 -1.332031 "/></g></g></g><g fill="#172554" fill-opacity="1"><g transform="translate(122.991888, 293.295127)"><g><path d="M 7.453125 0.214844 C 11.269531 0.214844 14.039062 -2.574219 14.039062 -6.28125 C 14.039062 -10.007812 11.269531 -12.796875 7.453125 -12.796875 C 3.636719 -12.796875 0.847656 -10.007812 0.847656 -6.28125 C 0.847656 -2.574219 3.636719 0.214844 7.453125 0.214844 Z M 7.453125 -1.332031 C 4.589844 -1.332031 2.464844 -3.472656 2.464844 -6.28125 C 2.464844 -9.109375 4.589844 -11.25 7.453125 -11.25 C 10.3125 -11.25 12.4375 -9.125 12.4375 -6.28125 C 12.4375 -3.457031 10.3125 -1.332031 7.453125 -1.332031 Z M 7.453125 -1.332031 "/></g></g></g><g fill="#172554" fill-opacity="1"><g transform="translate(144.393864, 293.295127)"><g><path d="M 9.394531 0 L 11.429688 0 L 6.40625 -6.535156 L 11.015625 -12.601562 L 9 -12.601562 L 4.96875 -7.234375 L 3.292969 -7.234375 L 3.292969 -12.601562 L 1.710938 -12.601562 L 1.710938 0 L 3.292969 0 L 3.292969 -5.761719 L 4.96875 -5.761719 Z M 9.394531 0 "/></g></g></g><g fill="#172554" fill-opacity="1"><g transform="translate(162.30386, 293.295127)"><g><path d="M 5.472656 0.160156 C 7.972656 0.160156 9.917969 -1.1875 9.917969 -3.5625 C 9.917969 -6.191406 7.6875 -6.714844 5.707031 -7.199219 C 4.085938 -7.578125 2.628906 -7.9375 2.628906 -9.304688 C 2.628906 -10.511719 3.78125 -11.230469 5.308594 -11.230469 C 6.839844 -11.230469 7.992188 -10.421875 7.992188 -9.019531 L 9.558594 -9.019531 C 9.558594 -11.304688 7.957031 -12.742188 5.347656 -12.742188 C 2.734375 -12.742188 1.0625 -11.429688 1.0625 -9.253906 C 1.0625 -6.730469 3.203125 -6.210938 5.148438 -5.761719 C 6.785156 -5.363281 8.28125 -5.023438 8.28125 -3.546875 C 8.28125 -2.214844 7.039062 -1.386719 5.453125 -1.386719 C 3.707031 -1.386719 2.429688 -2.304688 2.429688 -3.871094 L 0.808594 -3.871094 C 0.808594 -1.386719 2.699219 0.160156 5.472656 0.160156 Z M 5.472656 0.160156 "/></g></g></g><g fill="#172554" fill-opacity="1"><g transform="translate(179.529855, 293.295127)"><g/></g></g><g fill="#172554" fill-opacity="1"><g transform="translate(190.725861, 293.295127)"><g><path d="M 7.453125 0.214844 C 11.269531 0.214844 14.039062 -2.574219 14.039062 -6.28125 C 14.039062 -10.007812 11.269531 -12.796875 7.453125 -12.796875 C 3.636719 -12.796875 0.847656 -10.007812 0.847656 -6.28125 C 0.847656 -2.574219 3.636719 0.214844 7.453125 0.214844 Z M 7.453125 -1.332031 C 4.589844 -1.332031 2.464844 -3.472656 2.464844 -6.28125 C 2.464844 -9.109375 4.589844 -11.25 7.453125 -11.25 C 10.3125 -11.25 12.4375 -9.125 12.4375 -6.28125 C 12.4375 -3.457031 10.3125 -1.332031 7.453125 -1.332031 Z M 7.453125 -1.332031 "/></g></g></g><g fill="#172554" fill-opacity="1"><g transform="translate(212.127834, 293.295127)"><g><path d="M 10.207031 -12.601562 L 10.207031 -2.878906 L 3.148438 -12.601562 L 1.710938 -12.601562 L 1.710938 0 L 3.257812 0 L 3.257812 -9.828125 L 10.421875 0 L 11.753906 0 L 11.753906 -12.601562 Z M 10.207031 -12.601562 "/></g></g></g><g fill="#172554" fill-opacity="1"><g transform="translate(232.089819, 293.295127)"><g><path d="M 3.292969 -1.476562 L 3.292969 -12.601562 L 1.710938 -12.601562 L 1.710938 0 L 8.820312 0 L 8.820312 -1.476562 Z M 3.292969 -1.476562 "/></g></g></g><g fill="#172554" fill-opacity="1"><g transform="translate(247.785813, 293.295127)"><g><path d="M 1.710938 0 L 3.292969 0 L 3.292969 -12.601562 L 1.710938 -12.601562 Z M 1.710938 0 "/></g></g></g><g fill="#172554" fill-opacity="1"><g transform="translate(259.287823, 293.295127)"><g><path d="M 10.207031 -12.601562 L 10.207031 -2.878906 L 3.148438 -12.601562 L 1.710938 -12.601562 L 1.710938 0 L 3.257812 0 L 3.257812 -9.828125 L 10.421875 0 L 11.753906 0 L 11.753906 -12.601562 Z M 10.207031 -12.601562 "/></g></g></g><g fill="#172554" fill-opacity="1"><g transform="translate(279.249819, 293.295127)"><g><path d="M 3.292969 -1.511719 L 3.292969 -5.742188 L 8.371094 -5.742188 L 8.371094 -7.199219 L 3.292969 -7.199219 L 3.292969 -11.089844 L 8.839844 -11.089844 L 8.839844 -12.601562 L 1.710938 -12.601562 L 1.710938 0 L 9.035156 0 L 9.035156 -1.511719 Z M 3.292969 -1.511719 "/></g></g></g><path stroke-linecap="butt" transform="matrix(0.751042, 0, 0, 0.75, 143.51087, 175.483246)" fill="none" stroke-linejoin="miter" d="M 0.00112973 0.501505 L 258.652175 0.501505 " stroke="#ffffff" stroke-width="1" stroke-opacity="1" stroke-miterlimit="4"/></svg>